<svg xmlns="http://www.w3.org/2000/svg" xmlns:xlink="http://www.w3.org/1999/xlink" viewBox="0 0 433.45 338.25"><defs><style>.cls-1{isolation:isolate;}.cls-163,.cls-2{mix-blend-mode:multiply;}.cls-3{fill:url(#linear-gradient);}.cls-4{fill:url(#linear-gradient-2);}.cls-5{fill:url(#linear-gradient-3);}.cls-6{fill:url(#linear-gradient-4);}.cls-7{fill:url(#linear-gradient-5);}.cls-8{fill:url(#linear-gradient-6);}.cls-9{fill:url(#linear-gradient-7);}.cls-10{fill:url(#linear-gradient-8);}.cls-11{fill:url(#linear-gradient-9);}.cls-12{fill:url(#linear-gradient-10);}.cls-13{fill:url(#linear-gradient-11);}.cls-14{fill:url(#linear-gradient-12);}.cls-15{fill:url(#linear-gradient-13);}.cls-16{fill:url(#linear-gradient-14);}.cls-17{fill:url(#linear-gradient-15);}.cls-18{fill:url(#linear-gradient-16);}.cls-19{fill:url(#linear-gradient-17);}.cls-20{fill:url(#linear-gradient-18);}.cls-21{fill:url(#linear-gradient-19);}.cls-22{fill:url(#linear-gradient-20);}.cls-23{fill:url(#linear-gradient-21);}.cls-24{fill:url(#linear-gradient-22);}.cls-25{fill:url(#linear-gradient-23);}.cls-26{fill:url(#linear-gradient-24);}.cls-27{fill:url(#linear-gradient-25);}.cls-28{fill:url(#linear-gradient-26);}.cls-29{fill:url(#linear-gradient-27);}.cls-30{fill:url(#linear-gradient-28);}.cls-31{fill:url(#linear-gradient-29);}.cls-32{fill:url(#linear-gradient-30);}.cls-33{fill:url(#linear-gradient-31);}.cls-34{fill:url(#linear-gradient-32);}.cls-35{fill:url(#linear-gradient-33);}.cls-36{fill:url(#linear-gradient-34);}.cls-37{fill:url(#linear-gradient-35);}.cls-38{fill:url(#linear-gradient-36);}.cls-39{fill:url(#linear-gradient-37);}.cls-40{fill:url(#linear-gradient-38);}.cls-41{fill:url(#linear-gradient-39);}.cls-42{fill:url(#linear-gradient-40);}.cls-43{fill:url(#linear-gradient-41);}.cls-44{fill:url(#linear-gradient-42);}.cls-45{fill:url(#linear-gradient-43);}.cls-46{fill:url(#linear-gradient-44);}.cls-47{fill:url(#linear-gradient-45);}.cls-48{fill:url(#linear-gradient-46);}.cls-49{fill:url(#linear-gradient-47);}.cls-50{fill:url(#linear-gradient-48);}.cls-51{fill:url(#linear-gradient-49);}.cls-52{fill:url(#linear-gradient-50);}.cls-53{fill:url(#linear-gradient-51);}.cls-54{fill:url(#linear-gradient-52);}.cls-55{fill:url(#linear-gradient-53);}.cls-56{fill:url(#linear-gradient-54);}.cls-57{fill:url(#linear-gradient-55);}.cls-58{fill:url(#linear-gradient-56);}.cls-59{fill:url(#linear-gradient-57);}.cls-60{fill:url(#linear-gradient-58);}.cls-61{fill:url(#linear-gradient-59);}.cls-62{fill:url(#linear-gradient-60);}.cls-63{fill:url(#linear-gradient-61);}.cls-64{fill:url(#linear-gradient-62);}.cls-65{fill:url(#linear-gradient-63);}.cls-66{fill:url(#linear-gradient-64);}.cls-67{fill:url(#linear-gradient-65);}.cls-68{fill:url(#linear-gradient-66);}.cls-69{fill:url(#linear-gradient-67);}.cls-70{fill:url(#linear-gradient-68);}.cls-71{fill:url(#linear-gradient-69);}.cls-72{fill:url(#linear-gradient-70);}.cls-73{fill:url(#linear-gradient-71);}.cls-74{fill:url(#linear-gradient-72);}.cls-75{fill:url(#linear-gradient-73);}.cls-76{fill:url(#linear-gradient-74);}.cls-77{fill:url(#linear-gradient-75);}.cls-78{fill:url(#linear-gradient-76);}.cls-79{fill:url(#linear-gradient-77);}.cls-80{fill:url(#linear-gradient-78);}.cls-81{fill:url(#linear-gradient-79);}.cls-82{fill:url(#linear-gradient-80);}.cls-83{fill:url(#linear-gradient-81);}.cls-84{fill:url(#linear-gradient-82);}.cls-85{fill:url(#linear-gradient-83);}.cls-86{fill:url(#linear-gradient-84);}.cls-87{fill:url(#linear-gradient-85);}.cls-88{fill:url(#linear-gradient-86);}.cls-89{fill:url(#linear-gradient-87);}.cls-90{fill:url(#linear-gradient-88);}.cls-91{fill:url(#linear-gradient-89);}.cls-92{fill:url(#linear-gradient-90);}.cls-93{fill:url(#linear-gradient-91);}.cls-94{fill:url(#linear-gradient-92);}.cls-95{fill:url(#linear-gradient-93);}.cls-96{fill:url(#linear-gradient-94);}.cls-97{fill:url(#linear-gradient-95);}.cls-98{fill:url(#linear-gradient-96);}.cls-99{fill:url(#linear-gradient-97);}.cls-100{fill:url(#linear-gradient-98);}.cls-101{fill:url(#linear-gradient-99);}.cls-102{fill:url(#linear-gradient-100);}.cls-103{fill:url(#linear-gradient-101);}.cls-104{fill:url(#linear-gradient-102);}.cls-105{fill:url(#linear-gradient-103);}.cls-106{fill:url(#linear-gradient-104);}.cls-107{fill:url(#linear-gradient-105);}.cls-108{fill:url(#linear-gradient-106);}.cls-109{fill:url(#linear-gradient-107);}.cls-110{fill:url(#linear-gradient-108);}.cls-111{fill:url(#linear-gradient-109);}.cls-112{fill:url(#linear-gradient-110);}.cls-113{fill:url(#linear-gradient-111);}.cls-114{fill:url(#linear-gradient-112);}.cls-115{fill:url(#linear-gradient-113);}.cls-116{fill:url(#linear-gradient-114);}.cls-117{fill:url(#linear-gradient-115);}.cls-118{fill:url(#linear-gradient-116);}.cls-119{fill:url(#linear-gradient-117);}.cls-120{fill:url(#linear-gradient-118);}.cls-121{fill:url(#linear-gradient-119);}.cls-122{fill:url(#linear-gradient-120);}.cls-123{fill:url(#linear-gradient-121);}.cls-124{fill:url(#linear-gradient-122);}.cls-125{fill:url(#linear-gradient-123);}.cls-126{fill:url(#linear-gradient-124);}.cls-127{fill:url(#linear-gradient-125);}.cls-128{fill:url(#linear-gradient-126);}.cls-129{fill:url(#linear-gradient-127);}.cls-130{fill:url(#linear-gradient-128);}.cls-131{fill:url(#linear-gradient-129);}.cls-132{fill:url(#linear-gradient-130);}.cls-133{fill:url(#linear-gradient-131);}.cls-134{fill:url(#linear-gradient-132);}.cls-135{fill:url(#linear-gradient-133);}.cls-136{fill:url(#linear-gradient-134);}.cls-137{fill:url(#linear-gradient-135);}.cls-138{fill:url(#linear-gradient-136);}.cls-139{fill:url(#linear-gradient-137);}.cls-140{fill:url(#linear-gradient-138);}.cls-141{fill:url(#linear-gradient-139);}.cls-142{fill:url(#linear-gradient-140);}.cls-143{fill:url(#linear-gradient-141);}.cls-144{fill:url(#linear-gradient-142);}.cls-145{fill:url(#linear-gradient-143);}.cls-146{fill:url(#linear-gradient-144);}.cls-147{fill:url(#linear-gradient-145);}.cls-148{fill:url(#linear-gradient-146);}.cls-149{fill:url(#linear-gradient-147);}.cls-150{fill:url(#linear-gradient-148);}.cls-151{fill:url(#linear-gradient-149);}.cls-152{fill:url(#linear-gradient-150);}.cls-153{fill:url(#linear-gradient-151);}.cls-154{fill:url(#linear-gradient-152);}.cls-155{fill:url(#linear-gradient-153);}.cls-156{fill:url(#linear-gradient-154);}.cls-157{fill:url(#linear-gradient-155);}.cls-158{fill:url(#linear-gradient-156);}.cls-159{fill:url(#linear-gradient-157);}.cls-160{fill:url(#linear-gradient-158);}.cls-161{fill:url(#linear-gradient-159);}.cls-162{fill:url(#linear-gradient-160);}.cls-163{opacity:0.2;}.cls-164{fill:url(#linear-gradient-161);}.cls-165{fill:url(#linear-gradient-162);}.cls-166{fill:url(#linear-gradient-163);}.cls-167{fill:url(#linear-gradient-164);}.cls-168{fill:url(#linear-gradient-165);}.cls-169{fill:url(#linear-gradient-166);}.cls-170{fill:url(#linear-gradient-167);}.cls-171{fill:url(#linear-gradient-168);}.cls-172{fill:url(#linear-gradient-169);}.cls-173{fill:url(#linear-gradient-170);}.cls-174{fill:url(#linear-gradient-171);}.cls-175{fill:url(#linear-gradient-172);}.cls-176{fill:url(#linear-gradient-173);}.cls-177{fill:url(#linear-gradient-174);}.cls-178{fill:url(#linear-gradient-175);}.cls-179{fill:url(#linear-gradient-176);}.cls-180{fill:url(#linear-gradient-177);}.cls-181{fill:url(#linear-gradient-178);}.cls-182{fill:url(#linear-gradient-179);}.cls-183{fill:url(#linear-gradient-180);}.cls-184{fill:url(#linear-gradient-181);}.cls-185{fill:url(#linear-gradient-182);}.cls-186{fill:url(#linear-gradient-183);}.cls-187{fill:url(#linear-gradient-184);}.cls-188{fill:url(#linear-gradient-185);}.cls-189{fill:url(#linear-gradient-186);}.cls-190{fill:url(#linear-gradient-187);}.cls-191{fill:url(#linear-gradient-188);}.cls-192{fill:url(#linear-gradient-189);}.cls-193{fill:url(#linear-gradient-190);}.cls-194{fill:url(#linear-gradient-191);}.cls-195{fill:url(#linear-gradient-192);}.cls-196{fill:url(#linear-gradient-193);}.cls-197{fill:url(#linear-gradient-194);}.cls-198{fill:url(#linear-gradient-195);}.cls-199{fill:url(#linear-gradient-196);}.cls-200{fill:url(#linear-gradient-197);}.cls-201{fill:url(#linear-gradient-198);}.cls-202{fill:url(#linear-gradient-199);}.cls-203{fill:url(#linear-gradient-200);}.cls-204{fill:url(#linear-gradient-201);}.cls-205{fill:url(#linear-gradient-202);}.cls-206{fill:url(#linear-gradient-203);}.cls-207{fill:url(#linear-gradient-204);}.cls-208{fill:url(#linear-gradient-205);}.cls-209{fill:url(#linear-gradient-206);}.cls-210{fill:url(#linear-gradient-207);}.cls-211{fill:url(#linear-gradient-208);}.cls-212{fill:url(#linear-gradient-209);}.cls-213{fill:url(#linear-gradient-210);}.cls-214{fill:url(#linear-gradient-211);}.cls-215{fill:url(#linear-gradient-212);}.cls-216{fill:url(#linear-gradient-213);}.cls-217{fill:url(#linear-gradient-214);}.cls-218{fill:url(#linear-gradient-215);}.cls-219{fill:url(#linear-gradient-216);}.cls-220{fill:url(#linear-gradient-217);}.cls-221{fill:url(#linear-gradient-218);}.cls-222{fill:url(#linear-gradient-219);}.cls-223{fill:url(#linear-gradient-220);}.cls-224{fill:url(#linear-gradient-221);}.cls-225{fill:url(#linear-gradient-222);}.cls-226{fill:url(#linear-gradient-223);}.cls-227{fill:url(#linear-gradient-224);}.cls-228{fill:url(#linear-gradient-225);}.cls-229{fill:url(#linear-gradient-226);}.cls-230{fill:url(#linear-gradient-227);}.cls-231{fill:url(#linear-gradient-228);}.cls-232{fill:url(#linear-gradient-229);}.cls-233{fill:url(#linear-gradient-230);}.cls-234{fill:url(#linear-gradient-231);}.cls-235{fill:url(#linear-gradient-232);}.cls-236{fill:url(#linear-gradient-233);}.cls-237{fill:url(#linear-gradient-234);}.cls-238{fill:url(#linear-gradient-235);}.cls-239{fill:url(#linear-gradient-236);}.cls-240{fill:url(#linear-gradient-237);}.cls-241{fill:url(#linear-gradient-238);}.cls-242{fill:url(#linear-gradient-239);}.cls-243{fill:url(#linear-gradient-240);}.cls-244{fill:url(#linear-gradient-241);}.cls-245{fill:url(#linear-gradient-242);}.cls-246{fill:url(#linear-gradient-243);}.cls-247{fill:url(#linear-gradient-244);}.cls-248{fill:url(#linear-gradient-245);}.cls-249{fill:url(#linear-gradient-246);}.cls-250{fill:url(#linear-gradient-247);}.cls-251{fill:url(#linear-gradient-248);}.cls-252{fill:url(#linear-gradient-249);}.cls-253{fill:url(#linear-gradient-250);}.cls-254{fill:url(#linear-gradient-251);}.cls-255{fill:url(#linear-gradient-252);}.cls-256{fill:url(#linear-gradient-253);}.cls-257{fill:url(#linear-gradient-254);}.cls-258{fill:url(#linear-gradient-255);}.cls-259{fill:url(#linear-gradient-256);}.cls-260{fill:url(#linear-gradient-257);}.cls-261{fill:url(#linear-gradient-258);}.cls-262{fill:url(#linear-gradient-259);}.cls-263{fill:url(#linear-gradient-260);}.cls-264{fill:url(#linear-gradient-261);}.cls-265{fill:url(#linear-gradient-262);}.cls-266{fill:url(#linear-gradient-263);}.cls-267{fill:url(#linear-gradient-264);}.cls-268{fill:url(#linear-gradient-265);}.cls-269{fill:url(#linear-gradient-266);}.cls-270{fill:url(#linear-gradient-267);}.cls-271{fill:url(#linear-gradient-268);}.cls-272{fill:url(#linear-gradient-269);}.cls-273{fill:url(#linear-gradient-270);}.cls-274{fill:url(#linear-gradient-271);}.cls-275{fill:url(#linear-gradient-272);}.cls-276{fill:url(#linear-gradient-273);}.cls-277{fill:url(#linear-gradient-274);}.cls-278{fill:url(#linear-gradient-275);}.cls-279{fill:url(#linear-gradient-276);}</style><linearGradient id="linear-gradient" x1="459.19" y1="389.83" x2="232.15" y2="39.27" gradientUnits="userSpaceOnUse"><stop offset="0" stop-color="#52bbe8"/><stop offset="0.2" stop-color="#69c3eb"/><stop offset="0.6" stop-color="#a3d8f1"/><stop offset="1" stop-color="#e1eff8"/></linearGradient><linearGradient id="linear-gradient-2" x1="490.52" y1="369.54" x2="263.47" y2="18.98" xlink:href="#linear-gradient"/><linearGradient id="linear-gradient-3" x1="521.84" y1="349.25" x2="294.79" y2="-1.31" xlink:href="#linear-gradient"/><linearGradient id="linear-gradient-4" x1="553.16" y1="328.96" x2="326.12" y2="-21.59" xlink:href="#linear-gradient"/><linearGradient id="linear-gradient-5" x1="580.77" y1="311.09" x2="353.72" y2="-39.47" xlink:href="#linear-gradient"/><linearGradient id="linear-gradient-6" x1="300.67" y1="492.5" x2="73.62" y2="141.94" xlink:href="#linear-gradient"/><linearGradient id="linear-gradient-7" x1="457.28" y1="391.06" x2="230.24" y2="40.5" xlink:href="#linear-gradient"/><linearGradient id="linear-gradient-8" x1="488.61" y1="370.77" x2="261.56" y2="20.22" xlink:href="#linear-gradient"/><linearGradient id="linear-gradient-9" x1="519.93" y1="350.49" x2="292.89" y2="-0.07" xlink:href="#linear-gradient"/><linearGradient id="linear-gradient-10" x1="551.25" y1="330.2" x2="324.21" y2="-20.36" xlink:href="#linear-gradient"/><linearGradient id="linear-gradient-11" x1="569.54" y1="318.36" x2="342.49" y2="-32.2" xlink:href="#linear-gradient"/><linearGradient id="linear-gradient-12" x1="486.7" y1="372.01" x2="259.66" y2="21.45" xlink:href="#linear-gradient"/><linearGradient id="linear-gradient-13" x1="518.02" y1="351.72" x2="290.98" y2="1.16" xlink:href="#linear-gradient"/><linearGradient id="linear-gradient-14" x1="545.63" y1="333.84" x2="318.58" y2="-16.71" xlink:href="#linear-gradient"/><linearGradient id="linear-gradient-15" x1="484.79" y1="373.24" x2="257.75" y2="22.69" xlink:href="#linear-gradient"/><linearGradient id="linear-gradient-16" x1="516.12" y1="352.96" x2="289.07" y2="2.4" xlink:href="#linear-gradient"/><linearGradient id="linear-gradient-17" x1="534.4" y1="341.12" x2="307.35" y2="-9.44" xlink:href="#linear-gradient"/><linearGradient id="linear-gradient-18" x1="263.62" y1="516.49" x2="36.58" y2="165.93" xlink:href="#linear-gradient"/><linearGradient id="linear-gradient-19" x1="482.89" y1="374.48" x2="255.84" y2="23.92" xlink:href="#linear-gradient"/><linearGradient id="linear-gradient-20" x1="510.49" y1="356.6" x2="283.44" y2="6.05" xlink:href="#linear-gradient"/><linearGradient id="linear-gradient-21" x1="230.39" y1="538.01" x2="3.35" y2="187.46" xlink:href="#linear-gradient"/><linearGradient id="linear-gradient-22" x1="261.71" y1="517.73" x2="34.67" y2="167.17" xlink:href="#linear-gradient"/><linearGradient id="linear-gradient-23" x1="293.04" y1="497.44" x2="65.99" y2="146.88" xlink:href="#linear-gradient"/><linearGradient id="linear-gradient-24" x1="324.36" y1="477.15" x2="97.32" y2="126.59" xlink:href="#linear-gradient"/><linearGradient id="linear-gradient-25" x1="499.26" y1="363.87" x2="272.21" y2="13.32" xlink:href="#linear-gradient"/><linearGradient id="linear-gradient-26" x1="228.48" y1="539.25" x2="1.44" y2="188.69" xlink:href="#linear-gradient"/><linearGradient id="linear-gradient-27" x1="259.81" y1="518.96" x2="32.76" y2="168.4" xlink:href="#linear-gradient"/><linearGradient id="linear-gradient-28" x1="291.13" y1="498.67" x2="64.08" y2="148.12" xlink:href="#linear-gradient"/><linearGradient id="linear-gradient-29" x1="197.81" y1="559.11" x2="-29.23" y2="208.55" xlink:href="#linear-gradient"/><linearGradient id="linear-gradient-30" x1="229.14" y1="538.82" x2="2.09" y2="188.27" xlink:href="#linear-gradient"/><linearGradient id="linear-gradient-31" x1="260.46" y1="518.54" x2="33.42" y2="167.98" xlink:href="#linear-gradient"/><linearGradient id="linear-gradient-32" x1="291.78" y1="498.25" x2="64.74" y2="147.69" xlink:href="#linear-gradient"/><linearGradient id="linear-gradient-33" x1="417.08" y1="417.1" x2="190.03" y2="66.54" xlink:href="#linear-gradient"/><linearGradient id="linear-gradient-34" x1="448.4" y1="396.81" x2="221.36" y2="46.26" xlink:href="#linear-gradient"/><linearGradient id="linear-gradient-35" x1="522.46" y1="348.85" x2="295.41" y2="-1.71" xlink:href="#linear-gradient"/><linearGradient id="linear-gradient-36" x1="563.28" y1="322.41" x2="336.23" y2="-28.15" xlink:href="#linear-gradient"/><linearGradient id="linear-gradient-37" x1="591.64" y1="304.04" x2="364.6" y2="-46.51" xlink:href="#linear-gradient"/><linearGradient id="linear-gradient-38" x1="522.61" y1="348.75" x2="295.57" y2="-1.81" xlink:href="#linear-gradient"/><linearGradient id="linear-gradient-39" x1="563.43" y1="322.31" x2="336.39" y2="-28.25" xlink:href="#linear-gradient"/><linearGradient id="linear-gradient-40" x1="590.4" y1="304.85" x2="363.35" y2="-45.71" xlink:href="#linear-gradient"/><linearGradient id="linear-gradient-41" x1="520.13" y1="350.36" x2="293.08" y2="-0.2" xlink:href="#linear-gradient"/><linearGradient id="linear-gradient-42" x1="557.48" y1="326.16" x2="330.44" y2="-24.39" xlink:href="#linear-gradient"/><linearGradient id="linear-gradient-43" x1="245.6" y1="528.16" x2="18.56" y2="177.6" xlink:href="#linear-gradient"/><linearGradient id="linear-gradient-44" x1="272.7" y1="510.61" x2="45.66" y2="160.05" xlink:href="#linear-gradient"/><linearGradient id="linear-gradient-45" x1="313.53" y1="484.17" x2="86.48" y2="133.61" xlink:href="#linear-gradient"/><linearGradient id="linear-gradient-46" x1="544.6" y1="334.51" x2="317.56" y2="-16.05" xlink:href="#linear-gradient"/><linearGradient id="linear-gradient-47" x1="232.79" y1="536.45" x2="5.75" y2="185.9" xlink:href="#linear-gradient"/><linearGradient id="linear-gradient-48" x1="270.22" y1="512.22" x2="43.17" y2="161.66" xlink:href="#linear-gradient"/><linearGradient id="linear-gradient-49" x1="311.04" y1="485.78" x2="83.99" y2="135.22" xlink:href="#linear-gradient"/><linearGradient id="linear-gradient-50" x1="199.81" y1="557.82" x2="-27.24" y2="207.26" xlink:href="#linear-gradient"/><linearGradient id="linear-gradient-51" x1="226.91" y1="540.27" x2="-0.14" y2="189.71" xlink:href="#linear-gradient"/><linearGradient id="linear-gradient-52" x1="267.73" y1="513.83" x2="40.68" y2="163.27" xlink:href="#linear-gradient"/><linearGradient id="linear-gradient-53" x1="471.85" y1="381.63" x2="244.8" y2="31.07" xlink:href="#linear-gradient"/><linearGradient id="linear-gradient-54" x1="164.79" y1="580.5" x2="-62.25" y2="229.94" xlink:href="#linear-gradient"/><linearGradient id="linear-gradient-55" x1="191.34" y1="563.31" x2="-35.71" y2="212.75" xlink:href="#linear-gradient"/><linearGradient id="linear-gradient-56" x1="224.42" y1="541.88" x2="-2.62" y2="191.32" xlink:href="#linear-gradient"/><linearGradient id="linear-gradient-57" x1="265.24" y1="515.44" x2="38.2" y2="164.88" xlink:href="#linear-gradient"/><linearGradient id="linear-gradient-58" x1="428.54" y1="409.68" x2="201.49" y2="59.12" xlink:href="#linear-gradient"/><linearGradient id="linear-gradient-59" x1="465.89" y1="385.48" x2="238.85" y2="34.93" xlink:href="#linear-gradient"/><linearGradient id="linear-gradient-60" x1="462" y1="388.01" x2="234.95" y2="37.45" xlink:href="#linear-gradient"/><linearGradient id="linear-gradient-61" x1="164.79" y1="580.5" x2="-62.25" y2="229.94" xlink:href="#linear-gradient"/><linearGradient id="linear-gradient-62" x1="189.54" y1="564.47" x2="-37.51" y2="213.91" xlink:href="#linear-gradient"/><linearGradient id="linear-gradient-63" x1="230.36" y1="538.03" x2="3.32" y2="187.47" xlink:href="#linear-gradient"/><linearGradient id="linear-gradient-64" x1="271.19" y1="511.59" x2="44.14" y2="161.03" xlink:href="#linear-gradient"/><linearGradient id="linear-gradient-65" x1="312.01" y1="485.15" x2="84.96" y2="134.59" xlink:href="#linear-gradient"/><linearGradient id="linear-gradient-66" x1="352.83" y1="458.71" x2="125.79" y2="108.15" xlink:href="#linear-gradient"/><linearGradient id="linear-gradient-67" x1="393.65" y1="432.27" x2="166.61" y2="81.71" xlink:href="#linear-gradient"/><linearGradient id="linear-gradient-68" x1="434.48" y1="405.83" x2="207.43" y2="55.27" xlink:href="#linear-gradient"/><linearGradient id="linear-gradient-69" x1="461.99" y1="388.01" x2="234.95" y2="37.45" xlink:href="#linear-gradient"/><linearGradient id="linear-gradient-70" x1="322.18" y1="478.56" x2="95.14" y2="128" xlink:href="#linear-gradient"/><linearGradient id="linear-gradient-71" x1="439.58" y1="402.53" x2="212.54" y2="51.97" xlink:href="#linear-gradient"/><linearGradient id="linear-gradient-72" x1="449.39" y1="396.17" x2="222.34" y2="45.62" xlink:href="#linear-gradient"/><linearGradient id="linear-gradient-73" x1="437.67" y1="403.76" x2="210.63" y2="53.21" xlink:href="#linear-gradient"/><linearGradient id="linear-gradient-74" x1="447.48" y1="397.41" x2="220.43" y2="46.85" xlink:href="#linear-gradient"/><linearGradient id="linear-gradient-75" x1="470.9" y1="382.24" x2="243.86" y2="31.68" xlink:href="#linear-gradient"/><linearGradient id="linear-gradient-76" x1="480.71" y1="375.89" x2="253.66" y2="25.33" xlink:href="#linear-gradient"/><linearGradient id="linear-gradient-77" x1="469" y1="383.47" x2="241.95" y2="32.92" xlink:href="#linear-gradient"/><linearGradient id="linear-gradient-78" x1="502.22" y1="361.95" x2="275.18" y2="11.4" xlink:href="#linear-gradient"/><linearGradient id="linear-gradient-79" x1="512.03" y1="355.6" x2="284.99" y2="5.04" xlink:href="#linear-gradient"/><linearGradient id="linear-gradient-80" x1="500.32" y1="363.19" x2="273.28" y2="12.63" xlink:href="#linear-gradient"/><linearGradient id="linear-gradient-81" x1="533.55" y1="341.67" x2="306.51" y2="-8.89" xlink:href="#linear-gradient"/><linearGradient id="linear-gradient-82" x1="543.35" y1="335.31" x2="316.31" y2="-15.24" xlink:href="#linear-gradient"/><linearGradient id="linear-gradient-83" x1="531.64" y1="342.9" x2="304.6" y2="-7.66" xlink:href="#linear-gradient"/><linearGradient id="linear-gradient-84" x1="564.87" y1="321.38" x2="337.83" y2="-29.18" xlink:href="#linear-gradient"/><linearGradient id="linear-gradient-85" x1="574.68" y1="315.03" x2="347.63" y2="-35.53" xlink:href="#linear-gradient"/><linearGradient id="linear-gradient-86" x1="562.97" y1="322.61" x2="335.92" y2="-27.94" xlink:href="#linear-gradient"/><linearGradient id="linear-gradient-87" x1="596.2" y1="301.09" x2="369.15" y2="-49.47" xlink:href="#linear-gradient"/><linearGradient id="linear-gradient-88" x1="288.95" y1="500.08" x2="61.91" y2="149.53" xlink:href="#linear-gradient"/><linearGradient id="linear-gradient-89" x1="279.15" y1="506.43" x2="52.1" y2="155.88" xlink:href="#linear-gradient"/><linearGradient id="linear-gradient-90" x1="290.86" y1="498.84" x2="63.82" y2="148.29" xlink:href="#linear-gradient"/><linearGradient id="linear-gradient-91" x1="312.38" y1="484.91" x2="85.34" y2="134.35" xlink:href="#linear-gradient"/><linearGradient id="linear-gradient-92" x1="310.47" y1="486.15" x2="83.43" y2="135.59" xlink:href="#linear-gradient"/><linearGradient id="linear-gradient-93" x1="435.77" y1="405" x2="208.72" y2="54.44" xlink:href="#linear-gradient"/><linearGradient id="linear-gradient-94" x1="478.8" y1="377.12" x2="251.76" y2="26.57" xlink:href="#linear-gradient"/><linearGradient id="linear-gradient-95" x1="467.09" y1="384.71" x2="240.04" y2="34.15" xlink:href="#linear-gradient"/><linearGradient id="linear-gradient-96" x1="476.89" y1="378.36" x2="249.85" y2="27.8" xlink:href="#linear-gradient"/><linearGradient id="linear-gradient-97" x1="510.13" y1="356.84" x2="283.08" y2="6.28" xlink:href="#linear-gradient"/><linearGradient id="linear-gradient-98" x1="541.45" y1="336.55" x2="314.4" y2="-14.01" xlink:href="#linear-gradient"/><linearGradient id="linear-gradient-99" x1="539.54" y1="337.78" x2="312.5" y2="-12.77" xlink:href="#linear-gradient"/><linearGradient id="linear-gradient-100" x1="529.74" y1="344.14" x2="302.69" y2="-6.42" xlink:href="#linear-gradient"/><linearGradient id="linear-gradient-101" x1="572.77" y1="316.26" x2="345.73" y2="-34.29" xlink:href="#linear-gradient"/><linearGradient id="linear-gradient-102" x1="445.57" y1="398.65" x2="218.53" y2="48.09" xlink:href="#linear-gradient"/><linearGradient id="linear-gradient-103" x1="498.41" y1="364.42" x2="271.37" y2="13.87" xlink:href="#linear-gradient"/><linearGradient id="linear-gradient-104" x1="508.22" y1="358.07" x2="281.17" y2="7.52" xlink:href="#linear-gradient"/><linearGradient id="linear-gradient-105" x1="537.63" y1="339.02" x2="310.59" y2="-11.54" xlink:href="#linear-gradient"/><linearGradient id="linear-gradient-106" x1="527.83" y1="345.37" x2="300.78" y2="-5.18" xlink:href="#linear-gradient"/><linearGradient id="linear-gradient-107" x1="561.06" y1="323.85" x2="334.01" y2="-26.71" xlink:href="#linear-gradient"/><linearGradient id="linear-gradient-108" x1="253.82" y1="522.84" x2="26.77" y2="172.28" xlink:href="#linear-gradient"/><linearGradient id="linear-gradient-109" x1="244.01" y1="529.2" x2="16.97" y2="178.63" xlink:href="#linear-gradient"/><linearGradient id="linear-gradient-110" x1="255.72" y1="521.61" x2="28.68" y2="171.05" xlink:href="#linear-gradient"/><linearGradient id="linear-gradient-111" x1="277.24" y1="507.67" x2="50.2" y2="157.11" xlink:href="#linear-gradient"/><linearGradient id="linear-gradient-112" x1="285.14" y1="502.55" x2="58.09" y2="152" xlink:href="#linear-gradient"/><linearGradient id="linear-gradient-113" x1="465.18" y1="385.95" x2="238.14" y2="35.39" xlink:href="#linear-gradient"/><linearGradient id="linear-gradient-114" x1="474.99" y1="379.6" x2="247.94" y2="29.04" xlink:href="#linear-gradient"/><linearGradient id="linear-gradient-115" x1="473.08" y1="380.83" x2="246.04" y2="30.27" xlink:href="#linear-gradient"/><linearGradient id="linear-gradient-116" x1="463.28" y1="387.18" x2="236.23" y2="36.62" xlink:href="#linear-gradient"/><linearGradient id="linear-gradient-117" x1="496.5" y1="365.66" x2="269.46" y2="15.1" xlink:href="#linear-gradient"/><linearGradient id="linear-gradient-118" x1="494.6" y1="366.89" x2="267.55" y2="16.34" xlink:href="#linear-gradient"/><linearGradient id="linear-gradient-119" x1="504.4" y1="360.54" x2="277.36" y2="9.99" xlink:href="#linear-gradient"/><linearGradient id="linear-gradient-120" x1="506.31" y1="359.31" x2="279.27" y2="8.75" xlink:href="#linear-gradient"/><linearGradient id="linear-gradient-121" x1="525.92" y1="346.61" x2="298.87" y2="-3.95" xlink:href="#linear-gradient"/><linearGradient id="linear-gradient-122" x1="275.33" y1="508.9" x2="48.29" y2="158.35" xlink:href="#linear-gradient"/><linearGradient id="linear-gradient-123" x1="273.43" y1="510.14" x2="46.38" y2="159.58" xlink:href="#linear-gradient"/><linearGradient id="linear-gradient-124" x1="304.75" y1="489.85" x2="77.71" y2="139.3" xlink:href="#linear-gradient"/><linearGradient id="linear-gradient-125" x1="314.55" y1="483.5" x2="87.51" y2="132.95" xlink:href="#linear-gradient"/><linearGradient id="linear-gradient-126" x1="336.07" y1="469.57" x2="109.03" y2="119.01" xlink:href="#linear-gradient"/><linearGradient id="linear-gradient-127" x1="345.88" y1="463.21" x2="118.83" y2="112.66" xlink:href="#linear-gradient"/><linearGradient id="linear-gradient-128" x1="218.68" y1="545.6" x2="-8.37" y2="195.04" xlink:href="#linear-gradient"/><linearGradient id="linear-gradient-129" x1="208.87" y1="551.95" x2="-18.17" y2="201.39" xlink:href="#linear-gradient"/><linearGradient id="linear-gradient-130" x1="220.59" y1="544.37" x2="-6.46" y2="193.81" xlink:href="#linear-gradient"/><linearGradient id="linear-gradient-131" x1="242.1" y1="530.43" x2="15.06" y2="179.87" xlink:href="#linear-gradient"/><linearGradient id="linear-gradient-132" x1="240.19" y1="531.66" x2="13.15" y2="181.11" xlink:href="#linear-gradient"/><linearGradient id="linear-gradient-133" x1="251.91" y1="524.08" x2="24.86" y2="173.52" xlink:href="#linear-gradient"/><linearGradient id="linear-gradient-134" x1="283.23" y1="503.79" x2="56.19" y2="153.23" xlink:href="#linear-gradient"/><linearGradient id="linear-gradient-135" x1="281.32" y1="505.02" x2="54.28" y2="154.47" xlink:href="#linear-gradient"/><linearGradient id="linear-gradient-136" x1="271.52" y1="511.38" x2="44.47" y2="160.82" xlink:href="#linear-gradient"/><linearGradient id="linear-gradient-137" x1="334.17" y1="470.8" x2="107.12" y2="120.24" xlink:href="#linear-gradient"/><linearGradient id="linear-gradient-138" x1="437.94" y1="403.59" x2="210.89" y2="53.03" xlink:href="#linear-gradient"/><linearGradient id="linear-gradient-139" x1="461.37" y1="388.41" x2="234.32" y2="37.86" xlink:href="#linear-gradient"/><linearGradient id="linear-gradient-140" x1="471.17" y1="382.07" x2="244.13" y2="31.51" xlink:href="#linear-gradient"/><linearGradient id="linear-gradient-141" x1="492.69" y1="368.13" x2="265.65" y2="17.57" xlink:href="#linear-gradient"/><linearGradient id="linear-gradient-142" x1="502.5" y1="361.78" x2="275.45" y2="11.22" xlink:href="#linear-gradient"/><linearGradient id="linear-gradient-143" x1="490.78" y1="369.36" x2="263.74" y2="18.81" xlink:href="#linear-gradient"/><linearGradient id="linear-gradient-144" x1="250" y1="525.31" x2="22.96" y2="174.76" xlink:href="#linear-gradient"/><linearGradient id="linear-gradient-145" x1="238.29" y1="532.9" x2="11.24" y2="182.34" xlink:href="#linear-gradient"/><linearGradient id="linear-gradient-146" x1="302.84" y1="491.09" x2="75.8" y2="140.53" xlink:href="#linear-gradient"/><linearGradient id="linear-gradient-147" x1="312.65" y1="484.73" x2="85.6" y2="134.18" xlink:href="#linear-gradient"/><linearGradient id="linear-gradient-148" x1="310.74" y1="485.97" x2="83.7" y2="135.42" xlink:href="#linear-gradient"/><linearGradient id="linear-gradient-149" x1="300.93" y1="492.32" x2="73.89" y2="141.77" xlink:href="#linear-gradient"/><linearGradient id="linear-gradient-150" x1="426.23" y1="411.17" x2="199.18" y2="60.62" xlink:href="#linear-gradient"/><linearGradient id="linear-gradient-151" x1="469.26" y1="383.3" x2="242.22" y2="32.75" xlink:href="#linear-gradient"/><linearGradient id="linear-gradient-152" x1="457.55" y1="390.89" x2="230.51" y2="40.33" xlink:href="#linear-gradient"/><linearGradient id="linear-gradient-153" x1="185.44" y1="567.12" x2="-41.6" y2="216.57" xlink:href="#linear-gradient"/><linearGradient id="linear-gradient-154" x1="206.96" y1="553.18" x2="-20.08" y2="202.63" xlink:href="#linear-gradient"/><linearGradient id="linear-gradient-155" x1="216.77" y1="546.83" x2="-10.28" y2="196.28" xlink:href="#linear-gradient"/><linearGradient id="linear-gradient-156" x1="248.09" y1="526.55" x2="21.05" y2="175.99" xlink:href="#linear-gradient"/><linearGradient id="linear-gradient-157" x1="269.61" y1="512.61" x2="42.57" y2="162.05" xlink:href="#linear-gradient"/><linearGradient id="linear-gradient-158" x1="279.42" y1="506.26" x2="52.37" y2="155.7" xlink:href="#linear-gradient"/><linearGradient id="linear-gradient-159" x1="404.71" y1="425.11" x2="177.66" y2="74.55" xlink:href="#linear-gradient"/><linearGradient id="linear-gradient-160" x1="436.03" y1="404.82" x2="208.99" y2="54.26" xlink:href="#linear-gradient"/><linearGradient id="linear-gradient-161" x1="298.9" y1="473.26" x2="21.79" y2="45.39" xlink:href="#linear-gradient"/><linearGradient id="linear-gradient-162" x1="472.76" y1="360.66" x2="195.64" y2="-67.21" xlink:href="#linear-gradient"/><linearGradient id="linear-gradient-163" x1="510.99" y1="335.89" x2="233.88" y2="-91.98" xlink:href="#linear-gradient"/><linearGradient id="linear-gradient-164" x1="549.23" y1="311.13" x2="272.11" y2="-116.74" xlink:href="#linear-gradient"/><linearGradient id="linear-gradient-165" x1="576.42" y1="293.52" x2="299.3" y2="-134.35" xlink:href="#linear-gradient"/><linearGradient id="linear-gradient-166" x1="509.62" y1="336.79" x2="232.5" y2="-91.08" xlink:href="#linear-gradient"/><linearGradient id="linear-gradient-167" x1="547.85" y1="312.02" x2="270.73" y2="-115.84" xlink:href="#linear-gradient"/><linearGradient id="linear-gradient-168" x1="575.25" y1="294.28" x2="298.13" y2="-133.59" xlink:href="#linear-gradient"/><linearGradient id="linear-gradient-169" x1="507.29" y1="338.29" x2="230.17" y2="-89.58" xlink:href="#linear-gradient"/><linearGradient id="linear-gradient-170" x1="543.3" y1="314.97" x2="266.18" y2="-112.9" xlink:href="#linear-gradient"/><linearGradient id="linear-gradient-171" x1="242.51" y1="509.78" x2="-34.61" y2="81.91" xlink:href="#linear-gradient"/><linearGradient id="linear-gradient-172" x1="504.96" y1="339.8" x2="227.84" y2="-88.07" xlink:href="#linear-gradient"/><linearGradient id="linear-gradient-173" x1="532.36" y1="322.05" x2="255.25" y2="-105.82" xlink:href="#linear-gradient"/><linearGradient id="linear-gradient-174" x1="214.08" y1="528.2" x2="-63.04" y2="100.33" xlink:href="#linear-gradient"/><linearGradient id="linear-gradient-175" x1="235.01" y1="514.64" x2="-42.11" y2="86.77" xlink:href="#linear-gradient"/><linearGradient id="linear-gradient-176" x1="273.24" y1="489.88" x2="-3.87" y2="62.01" xlink:href="#linear-gradient"/><linearGradient id="linear-gradient-177" x1="311.47" y1="465.12" x2="34.36" y2="37.25" xlink:href="#linear-gradient"/><linearGradient id="linear-gradient-178" x1="199.62" y1="537.56" x2="-77.5" y2="109.69" xlink:href="#linear-gradient"/><linearGradient id="linear-gradient-179" x1="232.68" y1="516.15" x2="-44.43" y2="88.28" xlink:href="#linear-gradient"/><linearGradient id="linear-gradient-180" x1="270.92" y1="491.39" x2="-6.2" y2="63.52" xlink:href="#linear-gradient"/><linearGradient id="linear-gradient-181" x1="171.19" y1="555.97" x2="-105.93" y2="128.1" xlink:href="#linear-gradient"/><linearGradient id="linear-gradient-182" x1="192.12" y1="542.42" x2="-84.99" y2="114.55" xlink:href="#linear-gradient"/><linearGradient id="linear-gradient-183" x1="230.36" y1="517.65" x2="-46.76" y2="89.79" xlink:href="#linear-gradient"/><linearGradient id="linear-gradient-184" x1="268.59" y1="492.89" x2="-8.53" y2="65.02" xlink:href="#linear-gradient"/><linearGradient id="linear-gradient-185" x1="421.51" y1="393.85" x2="144.4" y2="-34.02" xlink:href="#linear-gradient"/><linearGradient id="linear-gradient-186" x1="457.52" y1="370.52" x2="180.41" y2="-57.34" xlink:href="#linear-gradient"/><linearGradient id="linear-gradient-187" x1="170.03" y1="556.73" x2="-107.09" y2="128.86" xlink:href="#linear-gradient"/><linearGradient id="linear-gradient-188" x1="194.88" y1="540.63" x2="-82.24" y2="112.76" xlink:href="#linear-gradient"/><linearGradient id="linear-gradient-189" x1="233.11" y1="515.87" x2="-44.01" y2="88" xlink:href="#linear-gradient"/><linearGradient id="linear-gradient-190" x1="271.34" y1="491.11" x2="-5.77" y2="63.24" xlink:href="#linear-gradient"/><linearGradient id="linear-gradient-191" x1="424.27" y1="392.06" x2="147.15" y2="-35.81" xlink:href="#linear-gradient"/><linearGradient id="linear-gradient-192" x1="451.67" y1="374.31" x2="174.56" y2="-53.55" xlink:href="#linear-gradient"/><linearGradient id="linear-gradient-193" x1="548.38" y1="311.68" x2="271.27" y2="-116.19" xlink:href="#linear-gradient"/><linearGradient id="linear-gradient-194" x1="573.76" y1="295.24" x2="296.65" y2="-132.63" xlink:href="#linear-gradient"/><linearGradient id="linear-gradient-195" x1="271.8" y1="490.81" x2="-5.32" y2="62.94" xlink:href="#linear-gradient"/><linearGradient id="linear-gradient-196" x1="298.25" y1="473.68" x2="21.13" y2="45.81" xlink:href="#linear-gradient"/><linearGradient id="linear-gradient-197" x1="572.25" y1="296.22" x2="295.13" y2="-131.65" xlink:href="#linear-gradient"/><linearGradient id="linear-gradient-198" x1="252.56" y1="503.27" x2="-24.56" y2="75.4" xlink:href="#linear-gradient"/><linearGradient id="linear-gradient-199" x1="295.22" y1="475.65" x2="18.1" y2="47.78" xlink:href="#linear-gradient"/><linearGradient id="linear-gradient-200" x1="215.91" y1="527.01" x2="-61.21" y2="99.14" xlink:href="#linear-gradient"/><linearGradient id="linear-gradient-201" x1="242.36" y1="509.88" x2="-34.76" y2="82.01" xlink:href="#linear-gradient"/><linearGradient id="linear-gradient-202" x1="491.39" y1="348.59" x2="214.27" y2="-79.28" xlink:href="#linear-gradient"/><linearGradient id="linear-gradient-203" x1="196.67" y1="539.47" x2="-80.45" y2="111.6" xlink:href="#linear-gradient"/><linearGradient id="linear-gradient-204" x1="239.32" y1="511.85" x2="-37.8" y2="83.98" xlink:href="#linear-gradient"/><linearGradient id="linear-gradient-205" x1="438.63" y1="382.76" x2="161.51" y2="-45.1" xlink:href="#linear-gradient"/><linearGradient id="linear-gradient-206" x1="480.56" y1="355.61" x2="203.44" y2="-72.26" xlink:href="#linear-gradient"/><linearGradient id="linear-gradient-207" x1="162.66" y1="561.5" x2="-114.45" y2="133.63" xlink:href="#linear-gradient"/><linearGradient id="linear-gradient-208" x1="187.58" y1="545.36" x2="-89.54" y2="117.49" xlink:href="#linear-gradient"/><linearGradient id="linear-gradient-209" x1="237.4" y1="513.09" x2="-39.71" y2="85.22" xlink:href="#linear-gradient"/><linearGradient id="linear-gradient-210" x1="287.23" y1="480.82" x2="10.11" y2="52.95" xlink:href="#linear-gradient"/><linearGradient id="linear-gradient-211" x1="337.06" y1="448.55" x2="59.94" y2="20.68" xlink:href="#linear-gradient"/><linearGradient id="linear-gradient-212" x1="386.88" y1="416.28" x2="109.76" y2="-11.59" xlink:href="#linear-gradient"/><linearGradient id="linear-gradient-213" x1="436.61" y1="384.07" x2="159.5" y2="-43.8" xlink:href="#linear-gradient"/><linearGradient id="linear-gradient-214" x1="461.57" y1="367.9" x2="184.46" y2="-59.97" xlink:href="#linear-gradient"/><linearGradient id="linear-gradient-215" x1="294.52" y1="476.1" x2="17.41" y2="48.23" xlink:href="#linear-gradient"/><linearGradient id="linear-gradient-216" x1="447.45" y1="377.05" x2="170.33" y2="-50.82" xlink:href="#linear-gradient"/><linearGradient id="linear-gradient-217" x1="485.68" y1="352.29" x2="208.56" y2="-75.58" xlink:href="#linear-gradient"/><linearGradient id="linear-gradient-218" x1="497.65" y1="344.54" x2="220.53" y2="-83.33" xlink:href="#linear-gradient"/><linearGradient id="linear-gradient-219" x1="574.11" y1="295.01" x2="296.99" y2="-132.86" xlink:href="#linear-gradient"/><linearGradient id="linear-gradient-220" x1="562.14" y1="302.76" x2="285.03" y2="-125.1" xlink:href="#linear-gradient"/><linearGradient id="linear-gradient-221" x1="459.42" y1="369.3" x2="182.3" y2="-58.57" xlink:href="#linear-gradient"/><linearGradient id="linear-gradient-222" x1="523.92" y1="327.53" x2="246.79" y2="-100.34" xlink:href="#linear-gradient"/><linearGradient id="linear-gradient-223" x1="535.88" y1="319.78" x2="258.76" y2="-108.1" xlink:href="#linear-gradient"/><linearGradient id="linear-gradient-224" x1="559.82" y1="304.27" x2="282.7" y2="-123.6" xlink:href="#linear-gradient"/><linearGradient id="linear-gradient-225" x1="263.61" y1="496.13" x2="-13.51" y2="68.25" xlink:href="#linear-gradient"/><linearGradient id="linear-gradient-226" x1="483.35" y1="353.79" x2="206.24" y2="-74.07" xlink:href="#linear-gradient"/><linearGradient id="linear-gradient-227" x1="495.32" y1="346.04" x2="218.2" y2="-81.82" xlink:href="#linear-gradient"/><linearGradient id="linear-gradient-228" x1="492.99" y1="347.55" x2="215.87" y2="-80.32" xlink:href="#linear-gradient"/><linearGradient id="linear-gradient-229" x1="481.03" y1="355.3" x2="203.91" y2="-72.57" xlink:href="#linear-gradient"/><linearGradient id="linear-gradient-230" x1="521.59" y1="329.04" x2="244.47" y2="-98.84" xlink:href="#linear-gradient"/><linearGradient id="linear-gradient-231" x1="519.26" y1="330.54" x2="242.14" y2="-97.33" xlink:href="#linear-gradient"/><linearGradient id="linear-gradient-232" x1="531.22" y1="322.79" x2="254.11" y2="-105.08" xlink:href="#linear-gradient"/><linearGradient id="linear-gradient-233" x1="533.55" y1="321.28" x2="256.43" y2="-106.59" xlink:href="#linear-gradient"/><linearGradient id="linear-gradient-234" x1="251.64" y1="503.87" x2="-25.48" y2="76" xlink:href="#linear-gradient"/><linearGradient id="linear-gradient-235" x1="249.31" y1="505.38" x2="-27.81" y2="77.51" xlink:href="#linear-gradient"/><linearGradient id="linear-gradient-236" x1="287.54" y1="480.62" x2="10.42" y2="52.75" xlink:href="#linear-gradient"/><linearGradient id="linear-gradient-237" x1="299.51" y1="472.87" x2="22.39" y2="45" xlink:href="#linear-gradient"/><linearGradient id="linear-gradient-238" x1="325.77" y1="455.86" x2="48.65" y2="27.99" xlink:href="#linear-gradient"/><linearGradient id="linear-gradient-239" x1="337.74" y1="448.11" x2="60.62" y2="20.24" xlink:href="#linear-gradient"/><linearGradient id="linear-gradient-240" x1="208.75" y1="531.65" x2="-68.37" y2="103.78" xlink:href="#linear-gradient"/><linearGradient id="linear-gradient-241" x1="223.04" y1="522.39" x2="-54.07" y2="94.52" xlink:href="#linear-gradient"/><linearGradient id="linear-gradient-242" x1="261.27" y1="497.62" x2="-15.84" y2="69.76" xlink:href="#linear-gradient"/><linearGradient id="linear-gradient-243" x1="258.95" y1="499.14" x2="-18.17" y2="71.27" xlink:href="#linear-gradient"/><linearGradient id="linear-gradient-244" x1="246.98" y1="506.89" x2="-30.14" y2="79.02" xlink:href="#linear-gradient"/><linearGradient id="linear-gradient-245" x1="323.44" y1="457.36" x2="46.33" y2="29.5" xlink:href="#linear-gradient"/><linearGradient id="linear-gradient-246" x1="450.1" y1="375.33" x2="172.99" y2="-52.54" xlink:href="#linear-gradient"/><linearGradient id="linear-gradient-247" x1="478.7" y1="356.81" x2="201.58" y2="-71.06" xlink:href="#linear-gradient"/><linearGradient id="linear-gradient-248" x1="490.66" y1="349.06" x2="213.55" y2="-78.81" xlink:href="#linear-gradient"/><linearGradient id="linear-gradient-249" x1="516.93" y1="332.05" x2="239.81" y2="-95.82" xlink:href="#linear-gradient"/><linearGradient id="linear-gradient-250" x1="220.71" y1="523.89" x2="-56.4" y2="96.03" xlink:href="#linear-gradient"/><linearGradient id="linear-gradient-251" x1="206.42" y1="533.16" x2="-70.7" y2="105.29" xlink:href="#linear-gradient"/><linearGradient id="linear-gradient-252" x1="285.21" y1="482.13" x2="8.09" y2="54.26" xlink:href="#linear-gradient"/><linearGradient id="linear-gradient-253" x1="297.18" y1="474.37" x2="20.06" y2="46.51" xlink:href="#linear-gradient"/><linearGradient id="linear-gradient-254" x1="294.85" y1="475.88" x2="17.73" y2="48.01" xlink:href="#linear-gradient"/><linearGradient id="linear-gradient-255" x1="282.88" y1="483.63" x2="5.77" y2="55.77" xlink:href="#linear-gradient"/><linearGradient id="linear-gradient-256" x1="435.81" y1="384.59" x2="158.69" y2="-43.28" xlink:href="#linear-gradient"/><linearGradient id="linear-gradient-257" x1="488.34" y1="350.57" x2="211.22" y2="-77.3" xlink:href="#linear-gradient"/><linearGradient id="linear-gradient-258" x1="474.04" y1="359.83" x2="196.92" y2="-68.05" xlink:href="#linear-gradient"/><linearGradient id="linear-gradient-259" x1="180.16" y1="550.16" x2="-96.95" y2="122.29" xlink:href="#linear-gradient"/><linearGradient id="linear-gradient-260" x1="177.83" y1="551.68" x2="-99.29" y2="123.8" xlink:href="#linear-gradient"/><linearGradient id="linear-gradient-261" x1="204.09" y1="534.66" x2="-73.03" y2="106.8" xlink:href="#linear-gradient"/><linearGradient id="linear-gradient-262" x1="218.39" y1="525.41" x2="-58.73" y2="97.53" xlink:href="#linear-gradient"/><linearGradient id="linear-gradient-263" x1="244.65" y1="508.39" x2="-32.47" y2="80.53" xlink:href="#linear-gradient"/><linearGradient id="linear-gradient-264" x1="256.62" y1="500.64" x2="-20.5" y2="72.78" xlink:href="#linear-gradient"/><linearGradient id="linear-gradient-265" x1="254.29" y1="502.15" x2="-22.83" y2="74.28" xlink:href="#linear-gradient"/><linearGradient id="linear-gradient-266" x1="280.56" y1="485.14" x2="3.44" y2="57.27" xlink:href="#linear-gradient"/><linearGradient id="linear-gradient-267" x1="409.54" y1="401.6" x2="132.43" y2="-26.27" xlink:href="#linear-gradient"/><linearGradient id="linear-gradient-268" x1="447.78" y1="376.84" x2="170.66" y2="-51.03" xlink:href="#linear-gradient"/><linearGradient id="linear-gradient-269" x1="165.86" y1="559.43" x2="-111.26" y2="131.55" xlink:href="#linear-gradient"/><linearGradient id="linear-gradient-270" x1="216.06" y1="526.91" x2="-61.06" y2="99.04" xlink:href="#linear-gradient"/><linearGradient id="linear-gradient-271" x1="242.32" y1="509.9" x2="-34.79" y2="82.04" xlink:href="#linear-gradient"/><linearGradient id="linear-gradient-272" x1="292.52" y1="477.39" x2="15.41" y2="49.52" xlink:href="#linear-gradient"/><linearGradient id="linear-gradient-273" x1="395.25" y1="410.86" x2="118.13" y2="-17.01" xlink:href="#linear-gradient"/><linearGradient id="linear-gradient-274" x1="407.22" y1="403.11" x2="130.1" y2="-24.76" xlink:href="#linear-gradient"/><linearGradient id="linear-gradient-275" x1="433.48" y1="386.1" x2="156.36" y2="-41.77" xlink:href="#linear-gradient"/><linearGradient id="linear-gradient-276" x1="445.45" y1="378.35" x2="168.33" y2="-49.52" xlink:href="#linear-gradient"/></defs><g class="cls-1"><g id="Capa_2" data-name="Capa 2"><g id="Layer_1" data-name="Layer 1"><g class="cls-2"><path class="cls-3" d="M250.14,92.83l0,0L227.81,79.94V54.15l.05,0,22.28-12.87.05,0,22.28,12.86V79.94l-.05,0ZM228,79.82,250.14,92.6l22.13-12.78V54.27L250.14,41.49,228,54.27Z"/><path class="cls-4" d="M294.6,92.83l-.05,0L272.27,79.94V54.15l.05,0L294.6,41.26l0,0,22.28,12.86V79.94l-.05,0Zm-22.13-13L294.6,92.6l22.13-12.78V54.27L294.6,41.49,272.47,54.27Z"/><path class="cls-5" d="M339.06,92.83l-.05,0L316.73,79.94V54.15l0,0,22.28-12.87.05,0,22.28,12.86V79.94l-.05,0Zm-22.13-13L339.06,92.6,361.2,79.82V54.27L339.06,41.49,316.93,54.27Z"/><path class="cls-6" d="M383.53,92.83l0,0L361.2,79.94V54.15l.05,0,22.28-12.87,0,0,22.28,12.86V79.94l-.05,0Zm-22.14-13L383.53,92.6l22.13-12.78V54.27L383.53,41.49,361.39,54.27Z"/><polygon class="cls-7" points="433.45 89.45 427.99 92.6 405.85 79.83 405.85 54.27 427.99 41.49 433.45 44.64 433.45 44.41 428.04 41.29 427.99 41.26 405.71 54.13 405.66 54.15 405.66 79.94 427.94 92.8 427.99 92.83 433.45 89.68 433.45 89.45"/><path class="cls-8" d="M50.05,131.33l0,0L27.73,118.44V92.66l0,0L50.05,79.77l.05,0L72.38,92.66v25.78l0,0Zm-22.13-13,22.13,12.78,22.14-12.78V92.77L50.05,80,27.92,92.77Z"/><path class="cls-9" d="M272.37,131.33l-.05,0L250,118.44V92.66l.05,0,22.28-12.86.05,0L294.7,92.66v25.78l-.05,0Zm-22.14-13,22.14,12.78,22.13-12.78V92.77L272.37,80,250.23,92.77Z"/><path class="cls-10" d="M316.83,131.33l-.05,0L294.5,118.44V92.66l.05,0,22.28-12.86.05,0,22.28,12.86v25.78l-.05,0Zm-22.13-13,22.13,12.78L339,118.33V92.77L316.83,80,294.7,92.77Z"/><path class="cls-11" d="M361.29,131.33l0,0L339,118.44V92.66l0,0,22.28-12.86,0,0,22.28,12.86v25.78l-.05,0Zm-22.13-13,22.13,12.78,22.14-12.78V92.77L361.29,80,339.16,92.77Z"/><path class="cls-12" d="M405.76,131.33l-.05,0-22.28-12.87V92.66l.05,0,22.28-12.86,0,0,22.28,12.86v25.78l0,0Zm-22.14-13,22.14,12.78,22.13-12.78V92.77L405.76,80,383.62,92.77Z"/><polygon class="cls-13" points="433.45 121.43 428.08 118.33 428.08 92.77 433.45 89.68 433.45 89.45 427.94 92.63 427.89 92.66 427.89 118.44 433.45 121.65 433.45 121.43"/><path class="cls-14" d="M339.06,169.84l-.05,0L316.73,157V131.17l0,0,22.28-12.87.05,0,22.28,12.87V157l-.05,0Zm-22.13-13,22.13,12.78,22.14-12.78V131.28L339.06,118.5l-22.13,12.78Z"/><path class="cls-15" d="M383.53,169.84l0,0L361.2,157V131.17l.05,0,22.28-12.87,0,0,22.28,12.87V157l-.05,0Zm-22.14-13,22.14,12.78,22.13-12.78V131.28L383.53,118.5l-22.14,12.78Z"/><polygon class="cls-16" points="433.45 166.47 427.99 169.62 405.85 156.84 405.85 131.28 427.99 118.5 433.45 121.65 433.45 121.43 428.04 118.3 427.99 118.28 405.71 131.14 405.66 131.17 405.66 156.95 427.94 169.81 427.99 169.84 433.45 166.69 433.45 166.47"/><path class="cls-17" d="M361.29,208.34l0,0L339,195.45V169.67l0,0,22.28-12.86,0,0,22.28,12.86v25.78l-.05,0Zm-22.13-13,22.13,12.78,22.14-12.78V169.78L361.29,157l-22.13,12.78Z"/><path class="cls-18" d="M405.76,208.34l-.05,0-22.28-12.87V169.67l.05,0,22.28-12.86,0,0,22.28,12.86v25.78l0,0Zm-22.14-13,22.14,12.78,22.13-12.78V169.78L405.76,157l-22.14,12.78Z"/><polygon class="cls-19" points="433.45 198.44 428.08 195.34 428.08 169.78 433.45 166.69 433.45 166.47 427.94 169.64 427.89 169.67 427.89 195.45 433.45 198.66 433.45 198.44"/><path class="cls-20" d="M72.29,246.85l-.05,0L50,234V208.18l0,0,22.28-12.86,0,0,22.28,12.87V234l0,0Zm-22.14-13,22.14,12.78,22.13-12.78V208.29L72.29,195.51,50.15,208.29Z"/><path class="cls-21" d="M383.53,246.85l0,0L361.2,234V208.18l.05,0,22.28-12.86,0,0,22.28,12.87V234l-.05,0Zm-22.14-13,22.14,12.78,22.13-12.78V208.29l-22.13-12.78-22.14,12.78Z"/><polygon class="cls-22" points="433.45 243.48 427.99 246.63 405.85 233.85 405.85 208.29 427.99 195.51 433.45 198.66 433.45 198.44 428.04 195.31 427.99 195.29 405.71 208.15 405.66 208.18 405.66 233.96 427.94 246.82 427.99 246.85 433.45 243.7 433.45 243.48"/><path class="cls-23" d="M50.05,285.36l0,0L27.73,272.47V246.68l0,0,22.28-12.87.05,0,22.28,12.86v25.79l0,0Zm-22.13-13,22.13,12.78,22.14-12.78V246.8L50.05,234,27.92,246.8Z"/><path class="cls-24" d="M94.52,285.36l0,0L72.19,272.47V246.68l0,0,22.28-12.87,0,0,22.27,12.86v25.79l0,0Zm-22.14-13,22.14,12.78,22.13-12.78V246.8L94.52,234,72.38,246.8Z"/><path class="cls-25" d="M139,285.36l0,0-22.28-12.86V246.68l0,0L139,233.79l.05,0,22.28,12.86v25.79l-.05,0Zm-22.14-13L139,285.13l22.13-12.78V246.8L139,234,116.84,246.8Z"/><path class="cls-26" d="M183.44,285.36l-.05,0-22.28-12.86V246.68l0,0,22.28-12.87.05,0,22.28,12.86v25.79l-.05,0Zm-22.13-13,22.13,12.78,22.14-12.78V246.8L183.44,234,161.31,246.8Z"/><polygon class="cls-27" points="433.45 275.45 428.08 272.35 428.08 246.79 433.45 243.7 433.45 243.48 427.94 246.66 427.89 246.68 427.89 272.47 433.45 275.67 433.45 275.45"/><path class="cls-28" d="M72.29,323.86l-.05,0L50,311V285.19l0,0L72.29,272.3l0,0,22.28,12.86V311l0,0Zm-22.14-13,22.14,12.78,22.13-12.78V285.3L72.29,272.52,50.15,285.3Z"/><path class="cls-29" d="M116.75,323.86l0,0L94.42,311V285.19l0,0,22.28-12.86,0,0,22.28,12.86V311l-.05,0Zm-22.14-13,22.14,12.78,22.13-12.78V285.3l-22.13-12.78L94.61,285.3Z"/><path class="cls-30" d="M161.21,323.86l-.05,0L138.88,311V285.19l.05,0,22.28-12.86,0,0,22.28,12.86V311l0,0Zm-22.13-13,22.13,12.78,22.14-12.78V285.3l-22.14-12.78L139.08,285.3Z"/><polygon class="cls-31" points="27.92 338.25 27.92 323.81 50.05 311.03 72.19 323.81 72.19 338.25 72.38 338.25 72.38 323.69 50.1 310.83 50.05 310.8 27.77 323.67 27.73 323.69 27.73 338.25 27.92 338.25"/><polygon class="cls-32" points="72.38 338.25 72.38 323.81 94.52 311.03 116.65 323.81 116.65 338.25 116.84 338.25 116.84 323.69 94.56 310.83 94.52 310.8 72.24 323.67 72.19 323.69 72.19 338.25 72.38 338.25"/><polygon class="cls-33" points="116.84 338.25 116.84 323.81 138.98 311.03 161.12 323.81 161.12 338.25 161.31 338.25 161.31 323.69 139.03 310.83 138.98 310.8 116.7 323.67 116.65 323.69 116.65 338.25 116.84 338.25"/><polygon class="cls-34" points="161.31 338.25 161.31 323.81 183.44 311.03 205.58 323.81 205.58 338.25 205.77 338.25 205.77 323.69 183.49 310.83 183.44 310.8 161.16 323.67 161.12 323.69 161.12 338.25 161.31 338.25"/><polygon class="cls-35" points="339.16 338.25 339.16 323.81 361.29 311.03 383.43 323.81 383.43 338.25 383.62 338.25 383.62 323.69 361.34 310.83 361.29 310.8 339.01 323.67 338.97 323.69 338.97 338.25 339.16 338.25"/><polygon class="cls-36" points="383.62 338.25 383.62 323.81 405.76 311.03 427.89 323.81 427.89 338.25 428.08 338.25 428.08 323.69 405.81 310.83 405.76 310.8 383.48 323.67 383.43 323.69 383.43 338.25 383.62 338.25"/><polygon class="cls-37" points="332.26 0 332.26 21.87 303.79 38.31 275.32 21.87 275.32 0 274.31 0 274.31 22.45 303.79 39.47 333.26 22.45 333.26 0 332.26 0"/><polygon class="cls-38" points="390.2 0 390.2 21.87 361.73 38.31 333.26 21.87 333.26 0 332.26 0 332.26 22.45 361.73 39.47 391.21 22.45 391.21 0 390.2 0"/><polygon class="cls-39" points="391.21 21.87 391.21 0 390.2 0 390.2 22.45 419.68 39.47 433.45 31.52 433.45 30.36 419.68 38.31 391.21 21.87"/><path class="cls-40" d="M332.76,89.65l-29.48-17v-34l29.48-17,29.48,17v34ZM304.29,72.06l28.47,16.43,28.47-16.43V39.18L332.76,22.74,304.29,39.18Z"/><path class="cls-41" d="M390.71,89.65l-29.48-17v-34l29.48-17,29.47,17v34ZM362.24,72.06l28.47,16.43,28.47-16.43V39.18L390.71,22.74,362.24,39.18Z"/><polygon class="cls-42" points="433.45 79.71 420.18 72.06 420.18 39.18 433.45 31.52 433.45 30.36 419.18 38.6 419.18 72.64 433.45 80.88 433.45 79.71"/><path class="cls-43" d="M361.73,139.84l-29.47-17v-34l29.47-17,29.48,17v34Zm-28.47-17.6,28.47,16.44,28.47-16.44V89.36L361.73,72.93,333.26,89.36Z"/><polygon class="cls-44" points="433.45 130.73 419.68 138.68 391.21 122.24 391.21 89.36 419.68 72.93 433.45 80.88 433.45 79.71 419.68 71.77 390.2 88.78 390.2 122.82 419.68 139.84 433.45 131.89 433.45 130.73"/><polygon class="cls-45" points="0 130.56 0 131.73 13.55 139.55 13.55 172.42 0 180.24 0 181.41 14.55 173 14.55 138.97 0 130.56"/><path class="cls-46" d="M43,190,13.55,173V139L43,122,72.5,139v34Zm-28.47-17.6L43,188.86l28.47-16.44V139.55L43,123.11,14.55,139.55Z"/><path class="cls-47" d="M101,190,71.49,173V139L101,122l29.48,17v34ZM72.5,172.42,101,188.86l28.47-16.44V139.55L101,123.11,72.5,139.55Z"/><polygon class="cls-48" points="433.45 180.08 420.18 172.42 420.18 139.55 433.45 131.89 433.45 130.73 419.18 138.97 419.18 173 433.45 181.24 433.45 180.08"/><polygon class="cls-49" points="14.05 172.13 0 180.24 0 181.41 14.05 173.29 42.52 189.73 42.52 222.61 14.05 239.04 0 230.93 0 232.09 14.05 240.21 43.53 223.19 43.53 189.15 14.05 172.13"/><path class="cls-50" d="M72,240.21l-29.48-17v-34l29.48-17,29.47,17v34Zm-28.47-17.6L72,239l28.47-16.43V189.73L72,173.29,43.53,189.73Z"/><path class="cls-51" d="M129.94,240.21l-29.47-17v-34l29.47-17,29.48,17v34Zm-28.47-17.6L129.94,239l28.47-16.43V189.73l-28.47-16.44-28.47,16.44Z"/><polygon class="cls-52" points="0 230.93 0 232.09 13.55 239.91 13.55 272.79 0 280.61 0 281.77 14.55 273.37 14.55 239.33 0 230.93"/><path class="cls-53" d="M43,290.39l-29.47-17v-34l29.47-17,29.48,17v34Zm-28.47-17.6L43,289.23l28.47-16.44V239.92L43,223.48,14.55,239.92Z"/><path class="cls-54" d="M101,290.39l-29.48-17v-34l29.48-17,29.48,17v34ZM72.5,272.79,101,289.23l28.47-16.44V239.92L101,223.48,72.5,239.92Z"/><path class="cls-55" d="M390.71,290.39l-29.48-17v-34l29.48-17,29.47,17v34Zm-28.47-17.6,28.47,16.44,28.47-16.44V239.92l-28.47-16.44-28.47,16.44Z"/><polygon class="cls-56" points="0 332.46 10.03 338.25 12.04 338.25 0 331.3 0 332.46"/><polygon class="cls-57" points="14.05 272.5 0 280.61 0 281.77 14.05 273.66 42.52 290.1 42.52 322.97 16.06 338.25 18.07 338.25 43.53 323.56 43.53 289.52 14.05 272.5"/><polygon class="cls-58" points="69.98 338.25 43.53 322.97 43.53 290.1 72 273.66 100.47 290.1 100.47 322.97 74.01 338.25 76.02 338.25 101.47 323.56 101.47 289.52 72 272.5 42.52 289.52 42.52 323.56 67.97 338.25 69.98 338.25"/><polygon class="cls-59" points="127.93 338.25 101.47 322.97 101.47 290.1 129.94 273.66 158.41 290.1 158.41 322.97 131.96 338.25 133.97 338.25 159.42 323.56 159.42 289.52 129.94 272.5 100.47 289.52 100.47 323.56 125.92 338.25 127.93 338.25"/><polygon class="cls-60" points="359.72 338.25 333.26 322.97 333.26 290.1 361.73 273.66 390.2 290.1 390.2 322.97 363.75 338.25 365.76 338.25 391.21 323.56 391.21 289.52 361.73 272.5 332.26 289.52 332.26 323.56 357.71 338.25 359.72 338.25"/><polygon class="cls-61" points="419.68 273.66 433.45 281.61 433.45 280.45 419.68 272.5 390.2 289.52 390.2 323.56 415.66 338.25 417.67 338.25 391.21 322.97 391.21 290.1 419.68 273.66"/><polygon class="cls-62" points="433.45 331.46 421.69 338.25 423.7 338.25 433.45 332.63 433.45 331.46"/><polygon class="cls-63" points="0 331.3 0 332.46 10.03 338.25 12.04 338.25 0 331.3"/><polygon class="cls-64" points="18.07 338.25 43.02 323.85 67.97 338.25 69.99 338.25 43.02 322.68 16.06 338.25 18.07 338.25"/><polygon class="cls-65" points="76.02 338.25 100.97 323.85 125.92 338.25 127.93 338.25 100.97 322.68 74.01 338.25 76.02 338.25"/><polygon class="cls-66" points="133.97 338.25 158.92 323.85 183.87 338.25 185.88 338.25 158.92 322.68 131.96 338.25 133.97 338.25"/><polygon class="cls-67" points="191.92 338.25 216.87 323.85 241.81 338.25 243.83 338.25 216.87 322.68 189.9 338.25 191.92 338.25"/><polygon class="cls-68" points="249.86 338.25 274.81 323.85 299.76 338.25 301.77 338.25 274.81 322.68 247.85 338.25 249.86 338.25"/><polygon class="cls-69" points="307.81 338.25 332.76 323.85 357.71 338.25 359.72 338.25 332.76 322.68 305.8 338.25 307.81 338.25"/><polygon class="cls-70" points="365.76 338.25 390.71 323.85 415.66 338.25 417.67 338.25 390.71 322.68 363.75 338.25 365.76 338.25"/><polygon class="cls-71" points="433.45 331.46 421.69 338.25 423.7 338.25 433.45 332.63 433.45 331.46"/><path class="cls-72" d="M72.29,94.31a1.6,1.6,0,1,0-1.6-1.59A1.59,1.59,0,0,0,72.29,94.31Z"/><path class="cls-73" d="M205.67,41.64a.27.27,0,0,0,.27-.27.27.27,0,1,0-.54,0A.27.27,0,0,0,205.67,41.64Z"/><path class="cls-74" d="M227.91,51.14A3.07,3.07,0,1,0,231,54.21,3.07,3.07,0,0,0,227.91,51.14Z"/><path class="cls-75" d="M227.91,81.8A1.92,1.92,0,1,0,226,79.88,1.91,1.91,0,0,0,227.91,81.8Z"/><path class="cls-76" d="M250.14,94.44a1.73,1.73,0,1,0-1.73-1.72A1.72,1.72,0,0,0,250.14,94.44Z"/><circle class="cls-77" cx="250.14" cy="41.37" r="0.89"/><path class="cls-78" d="M272.37,56a1.76,1.76,0,1,0-1.76-1.76A1.76,1.76,0,0,0,272.37,56Z"/><path class="cls-79" d="M272.37,76.79a3.09,3.09,0,1,0,3.09,3.09A3.09,3.09,0,0,0,272.37,76.79Z"/><path class="cls-80" d="M294.6,42.68a1.31,1.31,0,1,0-1.3-1.31A1.31,1.31,0,0,0,294.6,42.68Z"/><path class="cls-81" d="M316.83,56.61a2.4,2.4,0,1,0-2.4-2.4A2.4,2.4,0,0,0,316.83,56.61Z"/><circle class="cls-82" cx="316.83" cy="79.88" r="2.86"/><path class="cls-83" d="M339.06,42.87a1.5,1.5,0,1,0-1.49-1.5A1.5,1.5,0,0,0,339.06,42.87Z"/><path class="cls-84" d="M361.29,55.93a1.72,1.72,0,1,0-1.72-1.72A1.73,1.73,0,0,0,361.29,55.93Z"/><circle class="cls-85" cx="361.29" cy="79.88" r="1.23"/><path class="cls-86" d="M383.53,42.53a1.16,1.16,0,1,0-1.16-1.16A1.16,1.16,0,0,0,383.53,42.53Z"/><path class="cls-87" d="M405.76,56a1.82,1.82,0,1,0-1.83-1.82A1.82,1.82,0,0,0,405.76,56Z"/><circle class="cls-88" cx="405.76" cy="79.88" r="2.07"/><path class="cls-89" d="M428,43.11a1.74,1.74,0,1,0-1.74-1.74A1.74,1.74,0,0,0,428,43.11Z"/><path class="cls-90" d="M50.05,129.18a2,2,0,1,0,2.05,2A2,2,0,0,0,50.05,129.18Z"/><circle class="cls-91" cx="27.82" cy="118.39" r="1.29"/><path class="cls-92" d="M27.82,93.69a1,1,0,1,0-1-1A1,1,0,0,0,27.82,93.69Z"/><circle class="cls-93" cx="50.05" cy="79.88" r="2.99"/><path class="cls-94" d="M72.29,120.9a2.52,2.52,0,1,0-2.52-2.51A2.52,2.52,0,0,0,72.29,120.9Z"/><path class="cls-95" d="M250.14,120.7a2.32,2.32,0,1,0-2.32-2.31A2.31,2.31,0,0,0,250.14,120.7Z"/><path class="cls-96" d="M294.6,91.53a1.19,1.19,0,1,0,1.19,1.19A1.19,1.19,0,0,0,294.6,91.53Z"/><path class="cls-97" d="M294.6,120.59a2.2,2.2,0,1,0-2.2-2.2A2.21,2.21,0,0,0,294.6,120.59Z"/><circle class="cls-98" cx="316.83" cy="131.22" r="1.39"/><path class="cls-99" d="M339.06,89.47a3.25,3.25,0,1,0,3.25,3.25A3.25,3.25,0,0,0,339.06,89.47Z"/><path class="cls-100" d="M383.53,95.13a2.41,2.41,0,1,0-2.41-2.41A2.41,2.41,0,0,0,383.53,95.13Z"/><path class="cls-101" d="M405.76,133.62a2.4,2.4,0,1,0-2.4-2.4A2.4,2.4,0,0,0,405.76,133.62Z"/><path class="cls-102" d="M383.53,121.22a2.84,2.84,0,1,0-2.84-2.83A2.83,2.83,0,0,0,383.53,121.22Z"/><path class="cls-103" d="M428,95.29a2.58,2.58,0,1,0-2.58-2.57A2.57,2.57,0,0,0,428,95.29Z"/><path class="cls-104" d="M274.22,131.22a1.85,1.85,0,1,0-1.85,1.85A1.85,1.85,0,0,0,274.22,131.22Z"/><circle class="cls-105" cx="339.06" cy="118.39" r="1.49"/><path class="cls-106" d="M361.29,132.82a1.6,1.6,0,1,0-1.59-1.6A1.6,1.6,0,0,0,361.29,132.82Z"/><circle class="cls-107" cx="427.99" cy="169.73" r="1.58"/><path class="cls-108" d="M405.76,154.83a2.06,2.06,0,1,0,2.05,2.06A2.06,2.06,0,0,0,405.76,154.83Z"/><circle class="cls-109" cx="427.99" cy="118.39" r="1.97"/><path class="cls-110" d="M50.05,205.89a2.35,2.35,0,1,0,2.35,2.34A2.34,2.34,0,0,0,50.05,205.89Z"/><circle class="cls-111" cx="27.82" cy="195.4" r="0.21"/><circle class="cls-112" cx="27.82" cy="169.73" r="1.87"/><path class="cls-113" d="M50.05,155.28a1.61,1.61,0,1,0,1.61,1.61A1.62,1.62,0,0,0,50.05,155.28Z"/><path class="cls-114" d="M93.06,208.23a1.46,1.46,0,1,0,1.46-1.45A1.46,1.46,0,0,0,93.06,208.23Z"/><path class="cls-115" d="M316.83,154.52a2.38,2.38,0,1,0,2.38,2.37A2.38,2.38,0,0,0,316.83,154.52Z"/><path class="cls-116" d="M336.59,169.73a2.47,2.47,0,1,0,2.47-2.47A2.48,2.48,0,0,0,336.59,169.73Z"/><circle class="cls-117" cx="361.29" cy="208.23" r="1.49"/><circle class="cls-118" cx="339.06" cy="195.4" r="1.94"/><circle class="cls-119" cx="361.29" cy="156.89" r="2.07"/><circle class="cls-120" cx="383.53" cy="195.4" r="2.94"/><path class="cls-121" d="M405.76,209.9a1.67,1.67,0,1,0-1.67-1.67A1.67,1.67,0,0,0,405.76,209.9Z"/><path class="cls-122" d="M383.53,172.64a2.91,2.91,0,1,0-2.92-2.91A2.91,2.91,0,0,0,383.53,172.64Z"/><circle class="cls-123" cx="427.99" cy="195.4" r="1.32"/><path class="cls-124" d="M72.29,198.23a2.84,2.84,0,1,0-2.84-2.83A2.83,2.83,0,0,0,72.29,198.23Z"/><path class="cls-125" d="M94.52,236.31a2.41,2.41,0,1,0-2.41-2.41A2.41,2.41,0,0,0,94.52,236.31Z"/><path class="cls-126" d="M140.12,233.9a1.14,1.14,0,1,0-1.14,1.15A1.14,1.14,0,0,0,140.12,233.9Z"/><path class="cls-127" d="M161.21,249a2.21,2.21,0,1,0-2.21-2.21A2.22,2.22,0,0,0,161.21,249Z"/><path class="cls-128" d="M185.58,233.9a2.14,2.14,0,1,0-2.14,2.14A2.13,2.13,0,0,0,185.58,233.9Z"/><path class="cls-129" d="M205.67,249.24a2.5,2.5,0,1,0-2.5-2.5A2.5,2.5,0,0,0,205.67,249.24Z"/><circle class="cls-130" cx="50.05" cy="285.25" r="1.44"/><circle class="cls-131" cx="27.82" cy="272.41" r="1.15"/><path class="cls-132" d="M27.28,246.74a.55.55,0,0,0,.54.55.55.55,0,0,0,0-1.1A.55.55,0,0,0,27.28,246.74Z"/><circle class="cls-133" cx="50.05" cy="233.9" r="2.26"/><path class="cls-134" d="M70.42,272.41a1.87,1.87,0,1,0,1.87-1.86A1.87,1.87,0,0,0,70.42,272.41Z"/><path class="cls-135" d="M73.56,246.74A1.28,1.28,0,1,0,72.29,248,1.27,1.27,0,0,0,73.56,246.74Z"/><path class="cls-136" d="M116.75,245.69a1.05,1.05,0,1,0,1,1.05A1,1,0,0,0,116.75,245.69Z"/><path class="cls-137" d="M137.22,285.25a1.76,1.76,0,1,0,1.76-1.77A1.76,1.76,0,0,0,137.22,285.25Z"/><path class="cls-138" d="M116.75,269.87a2.54,2.54,0,1,0,2.53,2.54A2.54,2.54,0,0,0,116.75,269.87Z"/><path class="cls-139" d="M205.67,275.15a2.74,2.74,0,1,0-2.73-2.74A2.74,2.74,0,0,0,205.67,275.15Z"/><path class="cls-140" d="M361.29,283.87a1.38,1.38,0,1,0,1.38,1.38A1.38,1.38,0,0,0,361.29,283.87Z"/><path class="cls-141" d="M361.29,235.5a1.6,1.6,0,1,0-1.6-1.6A1.59,1.59,0,0,0,361.29,235.5Z"/><path class="cls-142" d="M383.53,243.61a3.13,3.13,0,1,0,3.12,3.13A3.13,3.13,0,0,0,383.53,243.61Z"/><path class="cls-143" d="M405.76,235.6a1.7,1.7,0,1,0-1.7-1.7A1.7,1.7,0,0,0,405.76,235.6Z"/><path class="cls-144" d="M428,249.29a2.55,2.55,0,1,0-2.55-2.55A2.55,2.55,0,0,0,428,249.29Z"/><path class="cls-145" d="M428,269a3.4,3.4,0,1,0,3.39,3.4A3.4,3.4,0,0,0,428,269Z"/><path class="cls-146" d="M92.83,285.25a1.69,1.69,0,1,0,1.69-1.69A1.69,1.69,0,0,0,92.83,285.25Z"/><path class="cls-147" d="M94.52,313.67a2.76,2.76,0,1,0-2.76-2.75A2.75,2.75,0,0,0,94.52,313.67Z"/><circle class="cls-148" cx="161.21" cy="272.41" r="2.88"/><circle class="cls-149" cx="183.44" cy="285.25" r="1.06"/><path class="cls-150" d="M205.67,325.88a2.13,2.13,0,1,0-2.12-2.13A2.13,2.13,0,0,0,205.67,325.88Z"/><circle class="cls-151" cx="183.44" cy="310.92" r="3.25"/><path class="cls-152" d="M363.14,310.92a1.85,1.85,0,1,0-1.85,1.84A1.85,1.85,0,0,0,363.14,310.92Z"/><path class="cls-153" d="M405.76,287.65a2.41,2.41,0,1,0-2.41-2.4A2.41,2.41,0,0,0,405.76,287.65Z"/><path class="cls-154" d="M405.76,308.52a2.4,2.4,0,1,0,2.4,2.4A2.39,2.39,0,0,0,405.76,308.52Z"/><path class="cls-155" d="M28.25,323.75a.43.43,0,1,0-.43.43A.42.42,0,0,0,28.25,323.75Z"/><path class="cls-156" d="M50.05,309.53a1.39,1.39,0,1,0,1.39,1.39A1.38,1.38,0,0,0,50.05,309.53Z"/><path class="cls-157" d="M72.29,320.21a3.54,3.54,0,1,0,3.53,3.54A3.54,3.54,0,0,0,72.29,320.21Z"/><path class="cls-158" d="M116.75,321.61a2.14,2.14,0,1,0,2.13,2.14A2.14,2.14,0,0,0,116.75,321.61Z"/><path class="cls-159" d="M139,313.35a2.44,2.44,0,1,0-2.43-2.43A2.43,2.43,0,0,0,139,313.35Z"/><path class="cls-160" d="M164,323.75a2.78,2.78,0,1,0-2.78,2.78A2.78,2.78,0,0,0,164,323.75Z"/><path class="cls-161" d="M339.06,325.66a1.91,1.91,0,1,0-1.91-1.91A1.9,1.9,0,0,0,339.06,325.66Z"/><path class="cls-162" d="M383.53,325.86a2.11,2.11,0,1,0-2.12-2.11A2.11,2.11,0,0,0,383.53,325.86Z"/></g><g class="cls-163"><polygon class="cls-164" points="3.69 0 3.69 27.16 0 29.29 0 29.56 3.87 27.33 3.93 27.3 3.93 0 3.69 0"/><polygon class="cls-165" points="275.03 0 275.03 27.16 248.02 42.76 221 27.16 221 0 220.76 0 220.76 27.3 247.96 43 248.02 43.03 275.21 27.33 275.27 27.3 275.27 0 275.03 0"/><polygon class="cls-166" points="329.3 0 329.3 27.16 302.29 42.76 275.27 27.16 275.27 0 275.03 0 275.03 27.3 302.23 43 302.29 43.03 329.48 27.33 329.54 27.3 329.54 0 329.3 0"/><polygon class="cls-167" points="383.57 0 383.57 27.16 356.55 42.76 329.54 27.16 329.54 0 329.3 0 329.3 27.3 356.5 43 356.55 43.03 383.75 27.33 383.81 27.3 383.81 0 383.57 0"/><polygon class="cls-168" points="383.81 27.16 383.81 0 383.57 0 383.57 27.3 410.76 43 410.82 43.03 428 33.11 428 32.84 410.82 42.76 383.81 27.16"/><path class="cls-169" d="M329.42,90l-.06,0-27.19-15.7V42.83l.06,0,27.19-15.7.06,0,27.19,15.7V74.29l-.06,0Zm-27-15.87,27,15.6,27-15.6V43l-27-15.6L302.4,43Z"/><path class="cls-170" d="M383.69,90l-.06,0-27.19-15.7V42.83l.06,0,27.19-15.7.06,0,27.19,15.7V74.29l-.06,0Zm-27-15.87,27,15.6,27-15.6V43l-27-15.6-27,15.6Z"/><polygon class="cls-171" points="428 84.01 410.94 74.16 410.94 42.96 428 33.11 428 32.84 410.76 42.79 410.7 42.83 410.7 74.3 428 84.28 428 84.01"/><path class="cls-172" d="M356.55,137l-.05,0-27.2-15.7V89.82l.06,0,27.19-15.7.06,0,27.2,15.7v31.47l-.06,0Zm-27-15.87,27,15.59,27-15.59V90l-27-15.6-27,15.6Z"/><polygon class="cls-173" points="428 126.84 410.82 136.75 383.81 121.16 383.81 89.96 410.82 74.36 428 84.28 428 84.01 410.88 74.12 410.82 74.09 383.63 89.79 383.57 89.82 383.57 121.29 410.76 136.99 410.82 137.03 428 127.11 428 126.84"/><polygon class="cls-174" points="3.87 121.12 3.81 121.09 0 123.29 0 123.56 3.81 121.36 30.82 136.96 30.82 168.16 3.81 183.75 0 181.55 0 181.83 3.75 183.99 3.81 184.03 31 168.32 31.06 168.29 31.06 136.82 3.87 121.12"/><path class="cls-175" d="M383.69,184l-.06,0-27.19-15.7V136.82l.06,0,27.19-15.7.06,0,27.19,15.7v31.47l-.06,0Zm-27-15.87,27,15.6,27-15.6V137l-27-15.6-27,15.6Z"/><polygon class="cls-176" points="428 178 410.94 168.16 410.94 136.96 428 127.11 428 126.84 410.76 136.79 410.7 136.82 410.7 168.29 428 178.28 428 178"/><polygon class="cls-177" points="0 181.55 0 181.83 3.69 183.96 3.69 215.15 0 217.28 0 217.56 3.87 215.32 3.93 215.29 3.93 183.82 0 181.55"/><path class="cls-178" d="M30.94,231l-.06,0L3.69,215.29V183.82l.06,0,27.19-15.7.06,0,27.19,15.7v31.47l-.06,0Zm-27-15.87,27,15.6,27-15.6V184l-27-15.6L3.93,184Z"/><path class="cls-179" d="M85.21,231l-.06,0L58,215.29V183.82l.06,0,27.19-15.7.06,0,27.19,15.7v31.47l-.06,0Zm-27-15.87,27,15.6,27-15.6V184l-27-15.6-27,15.6Z"/><path class="cls-180" d="M139.48,231l-.06,0-27.19-15.7V183.82l.06,0,27.19-15.7.06,0,27.19,15.7v31.47l-.06,0Zm-27-15.87,27,15.6,27-15.6V184l-27-15.6-27,15.6Z"/><polygon class="cls-181" points="3.87 215.12 3.81 215.09 0 217.28 0 217.56 3.81 215.36 30.82 230.96 30.82 262.15 3.81 277.75 0 275.55 0 275.82 3.75 277.99 3.81 278.02 31 262.32 31.06 262.29 31.06 230.82 3.87 215.12"/><path class="cls-182" d="M58.08,278,58,278l-27.2-15.7V230.82l.06,0,27.2-15.7.05,0,27.2,15.7v31.47l-.06,0Zm-27-15.87,27,15.6,27-15.6V231l-27-15.59L31.06,231Z"/><path class="cls-183" d="M112.34,278l0,0-27.2-15.7V230.82l.06,0,27.19-15.7.06,0,27.2,15.7v31.47l-.06,0Zm-27-15.87,27,15.6,27-15.6V231l-27-15.59L85.33,231Z"/><polygon class="cls-184" points="0 275.55 0 275.82 3.69 277.95 3.69 309.15 0 311.28 0 311.55 3.87 309.32 3.93 309.29 3.93 277.82 0 275.55"/><path class="cls-185" d="M30.94,325l-.06,0L3.69,309.29V277.82l.06,0,27.19-15.7.06,0,27.19,15.7v31.47l-.06,0Zm-27-15.87,27,15.6,27-15.6V278l-27-15.59L3.93,278Z"/><path class="cls-186" d="M85.21,325l-.06,0L58,309.29V277.82l.06,0,27.19-15.7.06,0,27.19,15.7v31.47l-.06,0Zm-27-15.87,27,15.6,27-15.6V278l-27-15.59L58.19,278Z"/><path class="cls-187" d="M139.48,325l-.06,0-27.19-15.7V277.82l.06,0,27.19-15.7.06,0,27.19,15.7v31.47l-.06,0Zm-27-15.87,27,15.6,27-15.6V278l-27-15.59-27,15.59Z"/><path class="cls-188" d="M356.55,325l-.05,0-27.2-15.7V277.82l.06,0,27.19-15.7.06,0,27.2,15.7v31.47l-.06,0Zm-27-15.87,27,15.6,27-15.6V278l-27-15.59-27,15.59Z"/><polygon class="cls-189" points="428 314.83 410.82 324.75 383.81 309.15 383.81 277.95 410.82 262.36 428 272.27 428 272 410.88 262.12 410.82 262.08 383.63 277.78 383.57 277.82 383.57 309.29 410.76 324.99 410.82 325.02 428 315.1 428 314.83"/><polygon class="cls-190" points="3.87 309.12 3.81 309.08 0 311.28 0 311.55 3.81 309.35 30.82 324.95 30.82 334 31.06 334 31.06 324.81 3.87 309.12"/><polygon class="cls-191" points="31.06 334 31.06 324.95 58.08 309.35 85.09 324.95 85.09 334 85.33 334 85.33 324.81 58.13 309.12 58.08 309.08 30.88 324.78 30.82 324.81 30.82 334 31.06 334"/><polygon class="cls-192" points="85.33 334 85.33 324.95 112.34 309.35 139.36 324.95 139.36 334 139.6 334 139.6 324.81 112.4 309.12 112.34 309.08 85.15 324.78 85.09 324.81 85.09 334 85.33 334"/><polygon class="cls-193" points="139.6 334 139.6 324.95 166.61 309.35 193.63 324.95 193.63 334 193.87 334 193.87 324.81 166.67 309.12 166.61 309.08 139.42 324.78 139.36 324.81 139.36 334 139.6 334"/><polygon class="cls-194" points="356.67 334 356.67 324.95 383.69 309.35 410.7 324.95 410.7 334 410.94 334 410.94 324.81 383.75 309.12 383.69 309.08 356.5 324.78 356.44 324.81 356.44 334 356.67 334"/><polygon class="cls-195" points="428 314.83 410.76 324.78 410.7 324.81 410.7 334 410.94 334 410.94 324.95 428 315.1 428 314.83"/><polygon class="cls-196" points="391.84 0 391.84 31.93 357.09 51.99 322.34 31.93 322.34 0 321.11 0 321.11 32.64 357.09 53.41 393.07 32.64 393.07 0 391.84 0"/><polygon class="cls-197" points="393.07 31.93 393.07 0 391.84 0 391.84 32.64 427.82 53.41 428 53.31 428 51.89 427.82 51.99 393.07 31.93"/><polygon class="cls-198" points="0 50 0 51.42 2.84 53.06 2.84 93.18 0 94.82 0 96.24 4.07 93.89 4.07 52.35 0 50"/><path class="cls-199" d="M38.82,114.66l-36-20.77V52.35l36-20.77,36,20.77V93.89ZM4.07,93.18l34.75,20.06L73.57,93.18V53.06L38.82,33,4.07,53.06Z"/><polygon class="cls-200" points="428 51.89 427.2 52.35 427.2 93.89 428 94.35 428 51.89"/><polygon class="cls-201" points="3.46 92.83 0 94.82 0 96.24 3.46 94.25 38.2 114.31 38.2 154.43 3.46 174.5 0 172.5 0 173.92 3.46 175.91 39.43 155.14 39.43 113.6 3.46 92.83"/><path class="cls-202" d="M74.18,175.91l-36-20.77V113.6l36-20.77,36,20.77v41.54ZM39.43,154.43,74.18,174.5l34.75-20.07V114.31L74.18,94.25,39.43,114.31Z"/><polygon class="cls-203" points="0 172.5 0 173.92 2.84 175.56 2.84 215.69 0 217.32 0 218.74 4.07 216.39 4.07 174.85 0 172.5"/><path class="cls-204" d="M38.82,237.17l-36-20.78V174.85l36-20.77,36,20.77v41.54ZM4.07,215.69l34.75,20.06,34.75-20.06V175.56L38.82,155.5,4.07,175.56Z"/><path class="cls-205" d="M428,174.6l-35.55-20.52-36,20.77v41.54l36,20.78L428,216.64Zm-35.55,61.15L357.7,215.69V175.56l34.75-20.06,34.75,20.06v40.13Z"/><polygon class="cls-206" points="3.46 215.33 0 217.32 0 218.74 3.46 216.75 38.2 236.81 38.2 276.94 3.46 297 0 295 0 296.42 3.46 298.42 39.43 277.64 39.43 236.1 3.46 215.33"/><path class="cls-207" d="M74.18,298.42l-36-20.77V236.1l36-20.77,36,20.77v41.55ZM39.43,276.94,74.18,297l34.75-20.06V236.81L74.18,216.75,39.43,236.81Z"/><path class="cls-208" d="M357.09,298.42l-36-20.77V236.1l36-20.77,36,20.77v41.55Zm-34.75-21.48L357.09,297l34.75-20.06V236.81l-34.75-20.06-34.75,20.06Z"/><polygon class="cls-209" points="428 296.89 427.82 297 393.07 276.94 393.07 236.81 427.82 216.75 428 216.85 428 215.44 427.82 215.33 391.84 236.1 391.84 277.64 427.82 298.42 428 298.31 428 296.89"/><polygon class="cls-210" points="0 295 0 296.42 2.84 298.06 2.84 334 4.07 334 4.07 297.35 0 295"/><polygon class="cls-211" points="4.07 334 4.07 298.06 38.82 278 73.57 298.06 73.57 334 74.8 334 74.8 297.35 38.82 276.58 2.84 297.35 2.84 334 4.07 334"/><polygon class="cls-212" points="74.8 334 74.8 298.06 109.55 278 144.29 298.06 144.29 334 145.52 334 145.52 297.35 109.55 276.58 73.57 297.35 73.57 334 74.8 334"/><polygon class="cls-213" points="145.52 334 145.52 298.06 180.27 278 215.02 298.06 215.02 334 216.25 334 216.25 297.35 180.27 276.58 144.29 297.35 144.29 334 145.52 334"/><polygon class="cls-214" points="216.25 334 216.25 298.06 251 278 285.75 298.06 285.75 334 286.98 334 286.98 297.35 251 276.58 215.02 297.35 215.02 334 216.25 334"/><polygon class="cls-215" points="286.98 334 286.98 298.06 321.73 278 356.48 298.06 356.48 334 357.7 334 357.7 297.35 321.73 276.58 285.75 297.35 285.75 334 286.98 334"/><polygon class="cls-216" points="428 334 428 297.11 392.45 276.58 356.48 297.35 356.48 334 357.7 334 357.7 298.06 392.45 278 427.2 298.06 427.2 334 428 334"/><polygon class="cls-217" points="428 296.89 427.2 297.35 427.2 334 428 334 428 296.89"/><path class="cls-218" d="M3.81,30.3A3.07,3.07,0,1,0,.74,27.23,3.07,3.07,0,0,0,3.81,30.3Z"/><circle class="cls-219" cx="220.88" cy="27.23" r="2.83"/><path class="cls-220" d="M275.15,29.91a2.69,2.69,0,1,0-2.68-2.68A2.69,2.69,0,0,0,275.15,29.91Z"/><circle class="cls-221" cx="302.29" cy="42.89" r="1.69"/><path class="cls-222" d="M410.82,45.83a2.94,2.94,0,1,0-2.93-2.94A2.94,2.94,0,0,0,410.82,45.83Z"/><circle class="cls-223" cx="383.69" cy="27.23" r="3.46"/><path class="cls-224" d="M250.27,42.89A2.26,2.26,0,1,0,248,45.15,2.25,2.25,0,0,0,250.27,42.89Z"/><circle class="cls-225" cx="329.42" cy="27.23" r="1.82"/><circle class="cls-226" cx="356.55" cy="42.89" r="1.95"/><path class="cls-227" d="M410.82,71.72a2.51,2.51,0,1,0,2.51,2.51A2.51,2.51,0,0,0,410.82,71.72Z"/><path class="cls-228" d="M29.16,136.89a1.78,1.78,0,1,0,1.78-1.78A1.78,1.78,0,0,0,29.16,136.89Z"/><circle class="cls-229" cx="302.29" cy="74.23" r="2.9"/><path class="cls-230" d="M326.41,89.89a3,3,0,1,0,3-3A3,3,0,0,0,326.41,89.89Z"/><circle class="cls-231" cx="356.55" cy="136.89" r="1.82"/><path class="cls-232" d="M329.42,118.85a2.37,2.37,0,1,0,2.37,2.37A2.38,2.38,0,0,0,329.42,118.85Z"/><circle class="cls-233" cx="356.55" cy="74.23" r="2.53"/><circle class="cls-234" cx="383.69" cy="121.22" r="3.59"/><path class="cls-235" d="M410.82,138.92a2,2,0,1,0-2-2A2,2,0,0,0,410.82,138.92Z"/><path class="cls-236" d="M383.69,93.45a3.56,3.56,0,1,0-3.56-3.56A3.55,3.55,0,0,0,383.69,93.45Z"/><path class="cls-237" d="M3.81,124.68a3.46,3.46,0,1,0-3.46-3.46A3.45,3.45,0,0,0,3.81,124.68Z"/><path class="cls-238" d="M30.94,171.16A2.94,2.94,0,1,0,28,168.22,2.93,2.93,0,0,0,30.94,171.16Z"/><path class="cls-239" d="M86.61,168.22a1.4,1.4,0,1,0-1.4,1.4A1.4,1.4,0,0,0,86.61,168.22Z"/><circle class="cls-240" cx="112.34" cy="183.89" r="2.7"/><path class="cls-241" d="M142.09,168.22a2.61,2.61,0,1,0-2.61,2.61A2.61,2.61,0,0,0,142.09,168.22Z"/><circle class="cls-242" cx="166.61" cy="183.89" r="3.05"/><path class="cls-243" d="M1.53,215.22A2.28,2.28,0,1,0,3.81,213,2.27,2.27,0,0,0,1.53,215.22Z"/><path class="cls-244" d="M5.37,183.89a1.56,1.56,0,1,0-1.56,1.56A1.56,1.56,0,0,0,5.37,183.89Z"/><circle class="cls-245" cx="58.08" cy="183.89" r="1.28"/><path class="cls-246" d="M83.06,230.89a2.15,2.15,0,1,0,2.15-2.15A2.15,2.15,0,0,0,83.06,230.89Z"/><path class="cls-247" d="M58.08,212.13a3.1,3.1,0,1,0,3.09,3.09A3.09,3.09,0,0,0,58.08,212.13Z"/><circle class="cls-248" cx="166.61" cy="215.22" r="3.34"/><path class="cls-249" d="M356.55,229.21a1.68,1.68,0,1,0,1.68,1.68A1.68,1.68,0,0,0,356.55,229.21Z"/><circle class="cls-250" cx="356.55" cy="168.22" r="1.95"/><circle class="cls-251" cx="383.69" cy="183.89" r="3.82"/><path class="cls-252" d="M410.82,170.3a2.08,2.08,0,1,0-2.07-2.08A2.08,2.08,0,0,0,410.82,170.3Z"/><circle class="cls-253" cx="30.94" cy="230.89" r="2.06"/><path class="cls-254" d="M30.94,265.58a3.37,3.37,0,1,0-3.36-3.36A3.36,3.36,0,0,0,30.94,265.58Z"/><circle class="cls-255" cx="112.34" cy="215.22" r="3.52"/><path class="cls-256" d="M138.19,230.89a1.29,1.29,0,1,0,1.29-1.3A1.29,1.29,0,0,0,138.19,230.89Z"/><circle class="cls-257" cx="166.61" cy="277.89" r="2.59"/><path class="cls-258" d="M139.48,258.25a4,4,0,1,0,4,4A4,4,0,0,0,139.48,258.25Z"/><path class="cls-259" d="M358.81,262.22a2.26,2.26,0,1,0-2.26,2.25A2.26,2.26,0,0,0,358.81,262.22Z"/><path class="cls-260" d="M410.82,233.82a2.94,2.94,0,1,0-2.93-2.93A2.94,2.94,0,0,0,410.82,233.82Z"/><path class="cls-261" d="M410.82,259.29a2.93,2.93,0,1,0,2.93,2.93A2.93,2.93,0,0,0,410.82,259.29Z"/><path class="cls-262" d="M3.81,273.57A4.29,4.29,0,0,0,0,275.89v4a4.31,4.31,0,1,0,3.81-6.31Z"/><path class="cls-263" d="M30.94,326.75a1.87,1.87,0,1,0-1.86-1.87A1.87,1.87,0,0,0,30.94,326.75Z"/><path class="cls-264" d="M58.08,312.9a3.69,3.69,0,1,0-3.69-3.68A3.68,3.68,0,0,0,58.08,312.9Z"/><path class="cls-265" d="M58.08,275.28a2.61,2.61,0,1,0,2.6,2.61A2.61,2.61,0,0,0,58.08,275.28Z"/><path class="cls-266" d="M85.21,265.19a3,3,0,1,0-3-3A3,3,0,0,0,85.21,265.19Z"/><path class="cls-267" d="M115.74,277.89a3.4,3.4,0,1,0-3.4,3.39A3.4,3.4,0,0,0,115.74,277.89Z"/><path class="cls-268" d="M139.48,327.55a2.67,2.67,0,1,0-2.67-2.67A2.67,2.67,0,0,0,139.48,327.55Z"/><circle class="cls-269" cx="166.61" cy="309.22" r="2.82"/><path class="cls-270" d="M329.42,280.22a2.34,2.34,0,1,0-2.33-2.33A2.33,2.33,0,0,0,329.42,280.22Z"/><circle class="cls-271" cx="383.69" cy="277.89" r="2.58"/><path class="cls-272" d="M3.81,307.82a1.4,1.4,0,1,0,1.4,1.4A1.4,1.4,0,0,0,3.81,307.82Z"/><path class="cls-273" d="M85.21,321.36a3.52,3.52,0,1,0,3.52,3.52A3.53,3.53,0,0,0,85.21,321.36Z"/><circle class="cls-274" cx="112.34" cy="309.22" r="1.57"/><circle class="cls-275" cx="193.75" cy="324.88" r="2.08"/><path class="cls-276" d="M329.42,306.61a2.61,2.61,0,1,0,2.61,2.61A2.61,2.61,0,0,0,329.42,306.61Z"/><path class="cls-277" d="M355.1,324.88a1.46,1.46,0,1,0,1.45-1.45A1.45,1.45,0,0,0,355.1,324.88Z"/><path class="cls-278" d="M383.69,306.51a2.71,2.71,0,1,0,2.71,2.71A2.71,2.71,0,0,0,383.69,306.51Z"/><path class="cls-279" d="M410.82,321.67a3.21,3.21,0,1,0,3.21,3.21A3.21,3.21,0,0,0,410.82,321.67Z"/></g></g></g></g></svg>